<svg width="382" height="266" viewBox="0 0 382 266" fill="none" xmlns="http://www.w3.org/2000/svg">
<path d="M0.124802 90.8745H76.6287L79 53.9724H76.3791C71.0126 75.4359 66.1453 86.3559 43.6809 86.3559H38.6888C36.3175 86.3559 34.3207 85.4772 34.3207 81.8372V18.2C34.3207 5.02069 35.6935 3.64 46.8009 2.00828V0H0V2.00828C10.9826 3.64 12.3554 5.14621 12.3554 18.3255V72.6745C12.3554 85.6028 10.9826 87.611 0 88.9917V91L0.124802 90.8745Z" fill="#9C9C9C"/>
<path d="M277 246.73H309.605V244.569C301.087 243.488 292.304 241.868 301.886 216.745L302.817 214.314H337.152L344.471 233.358C347 239.977 345.802 243.488 338.217 244.569V246.73H382V244.569C374.681 243.218 372.684 239.977 369.224 230.387L335.422 143H334.757C331.696 146.647 326.106 149.213 321.316 150.158L294.034 221.473C286.582 241.192 284.452 243.353 277 244.839V247V246.73ZM320.118 170.148L334.757 208.371H305.213L320.118 170.148Z" fill="#9C9C9C"/>
<rect x="21.674" y="72.5274" width="290" height="144.5" rx="6.5" transform="rotate(3.23194 21.674 72.5274)" fill="#E5FAFF" stroke="black"/>
<path d="M39.2466 111.528L44.6281 111.832L44.6479 111.481C43.2521 111.226 41.8173 110.88 43.6294 106.884L43.8055 106.497L49.4725 106.817L50.5057 109.983C50.8622 111.083 50.6323 111.642 49.3704 111.747L49.3505 112.099L56.577 112.507L56.5969 112.156C55.4012 111.868 55.1015 111.322 54.6185 109.73L49.8418 95.2037L49.732 95.1975C49.1933 95.7621 48.2472 96.1273 47.4478 96.2364L42.2901 107.58C40.879 110.717 40.5077 111.049 39.264 111.221L39.2442 111.572L39.2466 111.528ZM47.0666 99.4761L49.1317 105.829L44.2555 105.553L47.0666 99.4761Z" fill="black"/>
<path d="M62.7018 103.973C63.1502 103.447 63.63 103.144 63.9156 103.16C64.0913 103.17 64.1559 103.195 64.4618 103.631L65.0505 104.524C65.3551 104.982 65.482 105.077 66.0091 105.107C66.8877 105.157 67.811 104.415 67.8854 103.098C67.9548 101.868 67.1818 101.119 66.0177 101.053C64.6339 100.975 63.5429 102.346 62.6719 103.332L62.7474 100.824L57.7404 102.084L57.7206 102.435C59.1665 102.583 59.1993 102.783 59.0901 104.716L58.8123 109.636C58.6883 111.833 58.6734 112.097 57.1699 112.188L57.15 112.539L64.0031 112.926L64.0229 112.575C62.3416 112.304 62.2466 112.034 62.3706 109.837L62.7018 103.973Z" fill="black"/>
<path d="M76.5918 105.594C77.5363 105.648 78.2971 105.052 78.3455 104.195C78.4249 102.789 76.7956 101.596 74.6211 101.473C71.6118 101.303 68.3622 103.83 68.1489 107.608C67.9529 111.078 69.9508 113.549 73.2016 113.732C75.7496 113.876 77.1144 111.948 78.0016 110.676L77.7504 110.441C77.014 110.995 76.0692 111.338 75.0148 111.279C72.379 111.13 71.2266 108.905 71.3767 106.247C71.5441 103.282 73.273 102.322 74.0418 102.365C74.3713 102.384 74.4969 102.501 74.6527 102.863L75.4064 104.734C75.6572 105.365 76.0866 105.566 76.5918 105.594Z" fill="black"/>
<path d="M79.9798 97.2581L79.9599 97.6096C81.4059 97.7573 81.4387 97.9575 81.3295 99.8904L80.7094 110.873C80.5853 113.069 80.5704 113.333 79.0669 113.424L79.0471 113.776L85.5926 114.145L85.6125 113.794C84.1288 113.534 84.1437 113.27 84.2677 111.074L84.6137 104.946C84.9618 104.635 85.4819 104.4 86.1848 104.439C87.305 104.503 87.9375 105.398 87.8445 107.045L87.6064 111.262C87.4836 113.437 87.4455 113.721 86.2275 113.829L86.2077 114.18L92.4896 114.535L92.5095 114.183C91.0258 113.923 91.0407 113.66 91.1647 111.463L91.4388 106.609C91.6038 103.688 90.115 102.348 88.2919 102.245C86.3809 102.137 85.2327 103.35 84.6485 104.331L84.842 100.904C84.966 98.7075 85.1212 97.1298 85.2077 95.9888L79.9798 97.2581Z" fill="black"/>
<path d="M100.379 113.174C100.497 114.59 101.428 115.282 102.57 115.347C103.932 115.423 104.993 114.58 105.609 113.821L105.361 113.521C105.018 113.744 104.769 113.862 104.418 113.842C103.759 113.805 103.717 112.987 103.76 112.219L104.154 107.195C104.391 104.167 102.692 103.036 99.9248 102.88C96.7399 102.7 94.3485 104.856 94.3102 106.705L97.2535 106.871C97.2478 105.02 97.7408 103.704 99.2564 103.789C100.486 103.859 100.929 104.611 100.797 106.939L100.761 107.576C99.1194 108.167 98.1294 108.529 97.5202 108.781C95.0164 109.808 93.8503 110.557 93.7758 111.875C93.6878 113.435 95.1215 114.97 96.9446 115.073C98.5261 115.162 99.497 114.358 100.423 113.176L100.379 113.174ZM100.366 112.622C99.83 113.143 99.3796 113.315 98.8304 113.284C97.6663 113.219 97.0424 112.17 97.1044 111.072C97.1429 110.391 97.5059 109.816 98.3923 109.337C98.8232 109.119 99.3678 108.842 100.69 108.454L100.366 112.622Z" fill="black"/>
<path d="M111.942 115.92C114.578 116.069 116.402 114.21 117.366 112.745L117.115 112.51C116.371 113.195 115.051 113.539 113.931 113.476C111.537 113.341 109.806 111.612 109.969 108.713C109.979 108.537 110.011 108.363 110.021 108.187L117.731 108.623C117.788 105.651 115.91 103.804 113.01 103.64C109.847 103.462 107.028 106.167 106.82 109.857C106.636 113.108 108.494 115.725 111.942 115.92ZM112.607 104.543C113.925 104.618 114.518 105.819 114.486 107.558L110.115 107.311C110.369 105.541 111.245 104.466 112.629 104.544L112.607 104.543Z" fill="black"/>
<path d="M125.929 104.37C122.261 104.163 119.658 106.947 119.485 110.022C119.272 113.778 121.655 116.468 125.235 116.67C128.925 116.879 131.545 114.184 131.732 110.867C131.937 107.243 129.4 104.566 125.929 104.37ZM125.688 105.128C127.885 105.252 128.062 109.14 127.939 111.314C127.806 113.665 127.299 116.016 125.564 115.918C123.345 115.792 123.148 111.881 123.277 109.597C123.415 107.137 123.997 105.032 125.688 105.128Z" fill="black"/>
<path d="M134.447 113.907C134.323 116.104 134.308 116.367 132.805 116.459L132.785 116.81L139.331 117.18L139.35 116.828C137.867 116.568 137.882 116.305 138.006 114.108L138.58 103.939C138.704 101.742 138.859 100.164 138.946 99.0233L133.718 100.293L133.698 100.644C135.144 100.792 135.177 100.992 135.067 102.925L134.447 113.907Z" fill="black"/>
<path d="M147.315 105.578C143.647 105.37 141.044 108.154 140.87 111.229C140.658 114.985 143.04 117.676 146.621 117.878C150.311 118.086 152.931 115.392 153.118 112.075C153.323 108.451 150.786 105.774 147.315 105.578ZM147.074 106.335C149.271 106.459 149.448 110.347 149.325 112.522C149.192 114.872 148.685 117.223 146.95 117.125C144.731 117 144.533 113.089 144.662 110.804C144.801 108.344 145.383 106.24 147.074 106.335Z" fill="black"/>
<path d="M155.115 109.874C155.011 111.719 156.069 112.881 157.617 113.563C156.374 114.507 154.945 115.616 154.883 116.714C154.838 117.527 155.281 118.257 156.38 118.694C155.058 119.082 153.741 119.778 153.695 120.591C153.613 122.041 155.716 123.041 158.725 123.211C163.008 123.453 165.898 121.831 166.03 119.503C166.147 117.438 163.657 116.659 161.027 116.4L158.616 116.176C157.346 116.038 157.168 115.675 157.19 115.28C157.215 114.84 157.653 114.491 158.375 113.804C158.874 113.943 159.421 114.018 160.014 114.051C162.759 114.206 165.226 113.067 165.374 110.431C165.414 109.729 165.274 109.082 164.954 108.513L167.458 108.654L167.516 107.622L164.002 107.423C163.093 106.733 161.86 106.333 160.454 106.253C157.73 106.1 155.264 107.238 155.117 109.852L155.115 109.874ZM161.016 119.33C163.011 119.509 164.116 119.835 164.06 120.824C164 121.9 162.102 122.344 160.081 122.23C158.192 122.123 156.291 121.443 156.368 120.081C156.397 119.576 156.574 119.167 156.922 118.856C157.248 118.941 157.642 118.985 158.058 119.031L161.016 119.33ZM160.363 113.322C158.892 113.238 158.445 111.01 158.559 108.989C158.643 107.495 159.118 106.883 160.151 106.941C161.579 107.022 162.07 109.253 161.955 111.274C161.871 112.768 161.396 113.38 160.363 113.322Z" fill="black"/>
<path d="M172.765 120.17C172.391 120.942 171.877 121.838 171.514 122.413L170.457 121.229C170.147 120.881 169.975 120.805 169.645 120.787C168.854 120.742 168.329 121.462 168.29 122.142C168.232 123.175 169.257 123.762 170.245 123.817C172.024 123.918 172.72 122.525 173.648 120.528L178.39 109.91C179.073 108.362 179.368 108.203 180.592 107.986L180.611 107.656L176.525 107.425L176.507 107.755C178.09 108.197 177.865 108.669 177.053 110.562L175.026 115.251L173.005 109.276C172.649 108.176 172.714 107.805 174.246 107.605L174.264 107.276L167.543 106.896L167.524 107.226C168.328 107.425 168.543 107.922 168.912 108.802L173.074 119.372L172.721 120.167L172.765 120.17Z" fill="black"/>
<path d="M37.8037 138.855L39.8804 138.972L41.1756 135.9L47.825 136.276L48.7862 139.475L50.9827 139.599L46.3489 124.814L43.9926 124.681L37.8037 138.855ZM44.9947 126.801L47.2841 134.502L41.8927 134.198L44.9947 126.801Z" fill="black"/>
<path d="M53.0255 128.937L52.2215 143.175L54.0386 143.277L54.3273 138.165C54.922 139.341 55.9985 140.143 57.7357 140.241C60.2117 140.381 62.4423 138.483 62.6441 134.909C62.8425 131.395 60.8432 129.198 58.3671 129.059C56.6299 128.961 55.4699 129.636 54.7467 130.737L54.8426 129.04L53.0255 128.937ZM54.4571 134.447C54.6172 131.611 56.2025 130.499 57.8199 130.59C59.6769 130.695 60.8127 132.222 60.6672 134.797C60.5218 137.373 59.2214 138.762 57.3644 138.657C55.7469 138.566 54.297 137.282 54.4571 134.447Z" fill="black"/>
<path d="M73.0681 130.069L71.0313 129.954L68.1869 133.499L65.7797 129.657L63.6031 129.535L67.0229 134.956L62.7569 140.264L64.8336 140.381L67.9601 136.451L70.6443 140.709L72.8209 140.832L69.1241 134.995L73.0681 130.069Z" fill="black"/>
<path d="M83.6312 136.655C84.0437 133.253 82.2612 130.408 78.9665 130.222C76.0312 130.056 73.633 132.084 73.4402 135.499C73.2609 138.674 75.0004 141.216 78.395 141.407C81.0108 141.555 82.8149 140.115 83.3979 138.305L81.5208 138.199C81.0018 139.231 80.0826 139.9 78.4852 139.81C76.9077 139.721 75.2935 138.508 75.3644 136.188L83.6312 136.655ZM78.8785 131.779C80.8155 131.889 81.828 133.468 81.8022 134.989L75.4723 134.632C75.7538 132.484 77.2811 131.689 78.8785 131.779Z" fill="black"/>
<path d="M86.9359 136.281C87.1016 133.345 88.7189 132.375 90.3763 132.469C92.0336 132.562 93.528 133.768 93.3656 136.644C93.21 139.399 91.5826 140.55 89.9252 140.456C88.2679 140.362 86.7735 139.156 86.9359 136.281ZM90.4665 130.871C87.9704 130.73 85.2188 132.278 84.9989 136.171C84.7791 140.065 87.339 141.912 89.835 142.053C92.331 142.194 95.0827 140.647 95.3025 136.753C95.5224 132.859 92.9625 131.012 90.4665 130.871Z" fill="black"/>
<path d="M106.012 131.929L98.8436 131.525L98.4764 135.19C98.0053 139.63 97.0281 140.617 96.0696 140.563L95.8699 140.551L95.7809 142.129L96.1203 142.148C98.6163 142.289 99.6811 140.105 100.185 135.787L100.492 133.2L104.106 133.404L103.588 142.57L105.406 142.672L106.012 131.929Z" fill="black"/>
<path d="M109.722 137.567C109.888 134.632 111.505 133.662 113.163 133.755C114.82 133.849 116.314 135.055 116.152 137.931C115.996 140.686 114.369 141.836 112.712 141.743C111.054 141.649 109.56 140.443 109.722 137.567ZM113.253 132.158C110.757 132.017 108.005 133.564 107.785 137.458C107.565 141.352 110.125 143.199 112.621 143.34C115.117 143.481 117.869 141.934 118.089 138.04C118.309 134.146 115.749 132.299 113.253 132.158Z" fill="black"/>
<path d="M127.228 134.71L127.317 133.132L120.468 132.746L119.861 143.488L121.679 143.591L122.196 134.426L127.228 134.71Z" fill="black"/>
<path d="M135.61 144.378L137.427 144.48L138.034 133.738L136.217 133.635L130.208 141.429L130.666 133.321L128.848 133.219L128.242 143.962L130.059 144.064L136.068 136.271L135.61 144.378Z" fill="black"/>
<path d="M148.862 134.349L144.648 134.111C142.172 133.971 140.593 134.984 140.468 137.2C140.377 138.798 141.237 139.888 142.569 140.424L139.07 144.573L141.326 144.701L144.458 141.031C144.557 141.057 144.657 141.063 144.756 141.068L146.653 141.175L146.438 144.989L148.255 145.092L148.862 134.349ZM146.956 135.824L146.742 139.598L144.606 139.477C143.348 139.406 142.236 138.883 142.318 137.425C142.391 136.127 143.321 135.619 144.659 135.694L146.956 135.824Z" fill="black"/>
<path d="M270.176 106.334L271.318 86.123L291.529 87.2643L290.388 107.476L280.853 96.7993L270.176 106.334Z" fill="#89DE60"/>
<path d="M173.474 186.066L129.429 182.882L133.144 223.212L173.474 210.476H207.436L218.049 232.764L139.512 265.134L246.705 252.929L261.563 229.58L256.257 204.108L284.382 196.679L289.688 185.005L288.627 176.514L281.728 171.207L254.665 170.146L250.95 145.205L218.049 133L122 154.226L207.436 161.125L203.191 180.229L173.474 186.066Z" fill="#118199"/>
<path d="M174.005 191.373L138.981 187.658V197.21L163.391 199.863L137.389 207.293L138.981 216.314L174.005 207.293V191.373Z" fill="#FEE004"/>
<path d="M304.016 177.575L288.627 176.514L289.688 185.004L304.016 177.575Z" fill="#FEB700"/>
<path d="M256.257 204.108L252.542 191.903L283.851 196.679L256.257 204.108Z" fill="#ED020B"/>
<circle cx="277.483" cy="179.168" r="3.71461" fill="black"/>
</svg>
