<svg width="11" height="11" viewBox="0 0 11 11" fill="none" xmlns="http://www.w3.org/2000/svg">
<path d="M7.48778 3.67888C8.07348 3.67888 8.63697 3.67851 9.20047 3.67888C9.50907 3.67888 9.81802 3.67299 10.1266 3.68256C10.5326 3.69545 10.9046 4.01536 10.9769 4.39933C11.0564 4.82306 10.8569 5.23538 10.481 5.41724C10.4141 5.44964 10.3421 5.47025 10.2516 5.50449C10.7291 5.65469 11.0027 5.96283 10.9955 6.46755C10.9894 6.88944 10.7216 7.17658 10.2251 7.34188C10.4574 7.3879 10.6443 7.49024 10.7875 7.66768C10.9303 7.84439 11.0044 8.04871 10.9994 8.27769C10.9901 8.70253 10.7009 9.04416 10.248 9.1627C10.2777 9.17817 10.2977 9.19289 10.3199 9.19952C10.7589 9.33278 11.0485 9.75578 10.9923 10.1836C10.9285 10.6684 10.5645 10.9975 10.0786 10.9983C8.51274 11.0005 6.94648 11.0008 5.38058 10.9979C4.99644 10.9971 4.61015 11.0019 4.22817 10.9662C3.80644 10.9268 3.42731 10.7468 3.09007 10.4829C3.05177 10.453 3.02205 10.3849 3.0217 10.3345C3.01812 8.37893 3.01776 6.42337 3.02313 4.46817C3.02313 4.40964 3.07325 4.3338 3.12194 4.29589C3.88054 3.71165 4.545 3.03648 5.04907 2.20448C5.3301 1.74062 5.52306 1.23995 5.66376 0.713141C5.84491 0.0368667 6.61998 -0.219727 7.1484 0.212838C7.38002 0.40243 7.48778 0.656815 7.48778 0.960531C7.48778 1.81167 7.48778 2.66281 7.48778 3.51432C7.48778 3.56365 7.48778 3.61335 7.48778 3.67888Z" fill="black"/>
<path d="M2.30577 7.34168C2.30577 8.32167 2.30613 9.30166 2.30577 10.2816C2.30577 10.6689 2.11245 10.8692 1.73727 10.8699C1.34346 10.871 0.949659 10.8714 0.556214 10.8696C0.200717 10.8681 0.000593159 10.6616 0.000593159 10.2942C-0.000122847 8.32498 -0.000122847 6.3558 0.000235156 4.38661C0.000235156 4.01295 0.202149 3.80348 0.563732 3.80237C0.957535 3.8009 1.35134 3.8009 1.74478 3.80237C2.10637 3.80385 2.30542 4.01221 2.30542 4.38772C2.30613 5.37249 2.30577 6.3569 2.30577 7.34168Z" fill="black"/>
</svg>
