<svg width="11" height="11" viewBox="0 0 11 11" fill="none" xmlns="http://www.w3.org/2000/svg">
<path d="M3.5121 7.32112C2.9264 7.32112 2.36291 7.32149 1.79941 7.32112C1.49081 7.32112 1.18185 7.32701 0.873256 7.31744C0.467281 7.30455 0.0953161 6.98464 0.0229994 6.60067C-0.0564773 6.17694 0.14293 5.76462 0.518833 5.58276C0.58578 5.55036 0.657739 5.52975 0.748313 5.49551C0.270738 5.34531 -0.00277781 5.03717 0.00438214 4.53245C0.0104681 4.11056 0.278255 3.82341 0.774805 3.65812C0.542461 3.6121 0.355584 3.50976 0.212383 3.33232C0.0695394 3.15561 -0.00456772 2.95129 0.000444275 2.72231C0.00975226 2.29747 0.299018 1.95584 0.751892 1.8373C0.722178 1.82183 0.70213 1.80711 0.679934 1.80048C0.241022 1.66722 -0.048602 1.24422 0.00760439 0.816442C0.0713288 0.331601 0.435417 0.00248332 0.921227 0.00174702C2.48713 -0.00046188 4.05339 -0.000829721 5.6193 0.00211534C6.00344 0.00285161 6.38972 -0.00193477 6.77171 0.0337749C7.19344 0.0731659 7.57256 0.253187 7.9098 0.517144C7.94811 0.546963 7.97782 0.615069 7.97818 0.665504C7.98176 2.62107 7.98212 4.57663 7.97675 6.53182C7.97675 6.59036 7.92663 6.6662 7.87794 6.70411C7.11933 7.28835 6.45488 7.96352 5.95081 8.79552C5.66978 9.25938 5.47682 9.76005 5.33612 10.2869C5.15497 10.9631 4.3799 11.2197 3.85148 10.7872C3.61986 10.5976 3.5121 10.3432 3.5121 10.0395C3.5121 9.18833 3.5121 8.33719 3.5121 7.48568C3.5121 7.43635 3.5121 7.38665 3.5121 7.32112Z" fill="black"/>
<path d="M8.6941 3.65832C8.6941 2.67833 8.69374 1.69834 8.6941 0.718351C8.6941 0.331068 8.88742 0.130799 9.26261 0.130062C9.65641 0.128958 10.0502 0.12859 10.4437 0.130431C10.7992 0.131903 10.9993 0.338431 10.9993 0.705835C11 2.67502 11 4.6442 10.9996 6.61339C10.9996 6.98705 10.7977 7.19652 10.4361 7.19763C10.0423 7.1991 9.64854 7.1991 9.25509 7.19763C8.89351 7.19615 8.69446 6.98779 8.69446 6.61228C8.69375 5.62751 8.6941 4.6431 8.6941 3.65832Z" fill="black"/>
</svg>
