<svg width="462" height="450" viewBox="0 0 462 450" fill="none" xmlns="http://www.w3.org/2000/svg">
<circle cx="203" cy="247" r="203" fill="#DBDBDB"/>
<path d="M1 173.894C28.7469 158.308 56.1066 142.016 84.2407 127.134C104.922 116.195 158.353 84.6022 151.49 106.904C146.289 123.805 89.1832 184.318 84.9704 188.976C72.3572 202.924 43.1735 235.044 26.3553 251.303C25.2136 252.406 21.3757 255.178 22.403 253.968C32.4401 242.146 54.4783 222.989 63.8714 215.082C89.6436 193.388 123.023 167.401 150.213 147.728C152.445 146.114 195.199 115.558 206.274 111.628C207.611 111.154 208.565 114.342 207.855 115.565C201.99 125.674 170.461 157.702 167.299 160.993C143.968 185.275 71.7255 255.853 94.4558 231.012C106.119 218.265 130.731 197.872 140.789 189.643C172.155 163.98 199.811 142.921 233.028 119.624C244.905 111.294 256.765 102.884 269.267 95.5169C273.56 92.9877 279.172 87.1251 283.192 90.0656C286.621 92.574 279.741 97.9281 277.05 101.21C268.758 111.326 259.499 120.622 250.418 130.042C208.75 173.263 165.121 214.587 120.662 254.937C117.549 257.763 107.965 265.965 111.055 263.114C120.184 254.692 129.434 246.399 138.782 238.22C175.002 206.526 224.803 163.742 261.849 133.555C276.653 121.492 291.528 109.489 306.966 98.2425C314.991 92.396 337.595 74.7546 322.593 96.7282C310.403 114.581 282.929 144.006 269.997 157.783C251.69 177.286 231.033 198.542 210.896 216.657C207.32 219.873 204.378 225.124 199.586 225.621C195.58 226.037 204.959 219.617 207.977 216.96C216.484 209.47 225.201 202.209 234.123 195.215C255.776 178.24 291.421 152.023 314.506 136.826C324.78 130.061 352.783 110.107 348.07 121.441C345.009 128.8 338.411 134.177 332.929 139.975C322.661 150.836 311.904 161.245 300.886 171.35C279.934 190.566 244.041 221.178 220.259 238.341C214.351 242.605 208.633 248.397 201.41 249.425C198.09 249.898 203.556 242.894 205.788 240.4C221.722 222.6 256.054 193.777 272.916 180.194C286.088 169.582 299.614 159.406 313.229 149.364C323.049 142.12 332.786 134.705 343.205 128.346C346.277 126.471 352.801 121.298 353.42 124.833C354.354 130.168 348.318 134.451 345.029 138.764C336.697 149.69 327.641 160.055 318.64 170.442C291.756 201.468 273.057 221.763 243.547 250.636C231.885 262.047 219.935 273.173 207.734 284.01C199.334 291.472 190.652 298.626 181.77 305.513C177.099 309.135 172.68 313.492 167.117 315.507C155.88 319.577 182.731 297.341 191.803 289.583C216.067 268.834 251.566 241.277 277.537 223.562C290.14 214.964 302.99 206.647 316.451 199.455C323.702 195.581 331.219 190.059 339.435 190.49C342.836 190.669 341.127 197.688 339.496 200.666C330.355 217.36 299.817 246.474 288.664 257.299C280.03 265.68 256.194 288.115 243.304 298.063C212.629 321.737 302.757 248.293 333.963 225.318C344.621 217.471 355.218 209.526 366.189 202.12C371.771 198.351 377.186 193.959 383.579 191.823C390.874 189.386 378.754 206.652 374.215 212.841C358.056 234.876 339.631 254.381 321.194 274.44C320.457 275.242 318.423 277.739 319.309 277.105C324.613 273.311 329.493 268.96 334.571 264.87C353.836 249.353 381.174 226.953 400.726 212.296C408.629 206.371 416.497 200.331 424.987 195.276C441.193 185.625 430.611 199.036 426.264 204.846C415.578 219.126 399.311 236.424 387.227 249.001C381.063 255.416 374.644 261.582 368.378 267.899C366.212 270.082 358.873 274.867 361.933 274.501C365.833 274.035 368.265 269.869 371.418 267.535C391.056 253.003 403.982 242.954 424.683 229.255C425.191 228.919 451.829 210.949 459.341 210.357C464.241 209.971 457.019 220.19 453.99 224.046C436.037 246.901 373.316 307.802 393.916 287.281" stroke="black" stroke-linecap="round"/>
<path d="M74.1609 379.468L68.6815 376.679V382.722L74.1609 379.468Z" fill="#E30713"/>
<path d="M180.153 366.91L179.565 366.312H178.726H87.4028H86.8633L86.3971 366.583L73.6119 374.021L72.6176 374.599V375.75V383.188V384.303L73.566 384.889L86.3512 392.792L86.8346 393.091H87.4028H159.374V405.826H58.353V354.506H146.763H147.061L147.347 354.418L179.31 344.656L180.726 344.224V342.743V338.094V336.572L179.258 336.167L147.295 327.334L147.034 327.262H146.763H41.7413H40.9024L40.3145 327.86L32.552 335.763L31.9789 336.347V337.165L31.9789 419.448V420.266L32.552 420.85L44.8806 433.401L45.4685 434H46.3075H175.986H176.825L177.413 433.401L186.089 424.569L186.662 423.985V423.167V374.355V373.537L186.089 372.954L180.153 366.91ZM44.0814 370.332L37.6955 363.83L44.6454 356.754L51.5953 363.83L45.2094 370.332L44.6454 370.906L44.0814 370.332ZM45.2094 373.135L51.5953 379.636L44.6454 386.712L37.6955 379.636L44.0814 373.135L44.6454 372.56L45.2094 373.135ZM83.357 340.586L90.3069 333.51L97.0991 340.426L97.2567 340.586L97.0991 340.747L90.3069 347.662L83.357 340.586ZM99.9528 340.747L99.7951 340.586L99.9528 340.426L106.745 333.51L113.537 340.426L113.695 340.586L113.537 340.747L106.745 347.662L99.9528 340.747ZM116.391 340.426L123.183 333.51L130.133 340.586L123.183 347.662L116.391 340.747L116.233 340.586L116.391 340.426ZM166.461 401.95L173.411 394.875L180.361 401.95L173.518 408.917L173.411 409.026L173.303 408.917L166.461 401.95ZM173.518 411.72L180.361 418.686L173.411 425.762L166.461 418.686L173.303 411.72L173.411 411.61L173.518 411.72ZM132.873 379.636L125.923 386.712L120.044 380.726L118.973 379.636L120.044 378.546L125.923 372.56L132.873 379.636ZM117.19 378.546L118.261 379.636L117.19 380.726L111.311 386.712L104.361 379.636L111.311 372.56L117.19 378.546Z" fill="#284B8D" stroke="white" stroke-width="4"/>
<path d="M68.1025 330.655L58.3453 340.589L68.1025 350.523L77.8597 340.589L68.1025 330.655Z" fill="#EE7CAF"/>
<path d="M132.936 340.586L123.183 350.516L114.964 342.148L106.745 350.516L98.5259 342.148L90.3068 350.516L80.5536 340.586L90.3068 330.656L98.5259 339.024L106.745 330.656L114.964 339.024L123.183 330.656L132.936 340.586Z" fill="#EE7CAF"/>
<path d="M148.757 330.655L139 340.589L148.757 350.523L158.515 340.589L148.757 330.655Z" fill="#EE7CAF"/>
<path d="M45.5634 330.654L35.8062 340.588L45.5634 350.522L55.3206 340.588L45.5634 330.654Z" fill="#EE7CAF"/>
<path d="M46.6362 371.732L54.3987 379.635L44.6454 389.565L34.8921 379.635L42.6546 371.732L34.8921 363.829L44.6454 353.899L54.3987 363.829L46.6362 371.732Z" fill="#EE7CAF"/>
<path d="M43.737 394.806L33.9798 404.74L43.737 414.674L53.4942 404.74L43.737 394.806Z" fill="#EE7CAF"/>
<path d="M56.5222 408.753L46.765 418.687L56.5222 428.62L66.2793 418.687L56.5222 408.753Z" fill="#EE7CAF"/>
<path d="M83.0059 408.753L73.2487 418.687L83.0059 428.62L92.7631 418.687L83.0059 408.753Z" fill="#EE7CAF"/>
<path d="M106.75 408.754L96.9926 418.688L106.75 428.621L116.507 418.688L106.75 408.754Z" fill="#EE7CAF"/>
<path d="M128.667 408.754L118.91 418.688L128.667 428.621L138.424 418.688L128.667 408.754Z" fill="#EE7CAF"/>
<path d="M152.41 408.754L142.653 418.688L152.41 428.621L162.168 418.687L152.41 408.754Z" fill="#EE7CAF"/>
<path d="M174.945 410.317L183.164 418.685L173.411 428.615L163.657 418.685L171.877 410.317L163.657 401.949L173.411 392.02L183.164 401.949L174.945 410.317Z" fill="#EE7CAF"/>
<path d="M174.329 369.705L164.572 379.639L174.329 389.572L184.086 379.639L174.329 369.705Z" fill="#EE7CAF"/>
<path d="M152.411 369.705L142.654 379.639L152.411 389.572L162.168 379.639L152.411 369.705Z" fill="#EE7CAF"/>
<path d="M135.676 379.636L125.923 389.566L118.617 382.128L111.311 389.566L101.558 379.636L111.311 369.706L118.617 377.144L125.923 369.706L135.676 379.636Z" fill="#EE7CAF"/>
<path fill-rule="evenodd" clip-rule="evenodd" d="M95.8958 373.425H86.9462C87.3663 371.305 89.211 369.706 91.421 369.706C93.631 369.706 95.4757 371.305 95.8958 373.425Z" fill="#FFDF38"/>
<path fill-rule="evenodd" clip-rule="evenodd" d="M95.8958 385.513H86.9462C87.3663 387.633 89.211 389.232 91.421 389.232C93.631 389.232 95.4757 387.633 95.8958 385.513Z" fill="#FFDF38"/>
<path d="M221.394 82.8647L219.042 82.6947L219.258 85.0429L222.599 121.312L222.826 123.783L225.193 123.036L261.168 111.675H290.14L298.234 128.674L229.555 156.981L230.543 160.817L326.944 149.841L327.892 149.733L328.405 148.927L341.767 127.929L342.204 127.244L342.038 126.448L337.652 105.398L361.111 99.2011L362.029 98.9588L362.421 98.095L367.194 87.596L367.428 87.0813L367.357 86.5203L366.403 78.8847L366.299 78.0564L365.638 77.5475L359.434 72.7752L358.929 72.387L358.293 72.362L335.61 71.4725L332.513 50.6816L332.339 49.5123L331.231 49.1011L301.643 38.1249L301.09 37.92L300.515 38.0471L214.137 57.1363L214.408 61.0827L288.952 67.1017L285.916 80.7629L260.737 85.7088L221.394 82.8647Z" fill="#118199" stroke="white" stroke-width="4"/>
<path d="M261.337 92.4949L229.84 89.1543V97.7444L251.792 100.131L228.408 106.812L229.84 114.925L261.337 106.812V92.4949Z" fill="#FEE004"/>
<path d="M378.258 80.0882L364.418 79.1338L365.373 86.7694L378.258 80.0882Z" fill="#FEB700"/>
<path d="M335.307 103.948L331.967 92.9717L360.123 97.2667L335.307 103.948Z" fill="#ED020B"/>
<circle cx="354.397" cy="81.5183" r="3.3406" fill="black"/>
<path d="M152.973 222.642L155.141 225.893C155.501 226.433 156.272 226.492 156.71 226.014L159.691 222.763C160.279 222.121 159.824 221.087 158.953 221.087H153.805C153.006 221.087 152.53 221.977 152.973 222.642Z" fill="black"/>
<path d="M178.404 198.743L172.59 189.607C171.388 187.719 168.616 187.764 167.477 189.692L162.53 198.063H151.079L145.758 189.701C144.515 187.748 141.621 187.88 140.56 189.938L133.557 203.533L41.4788 210.616V199.493L99.3014 195.763C100.88 195.661 102.108 194.351 102.108 192.769V184.493C102.108 182.774 100.666 181.406 98.9485 181.497L27.6819 185.298C25.9999 185.388 24.7213 186.845 24.8505 188.524L30.1202 257.029L14.5961 305.013C13.9157 307.116 15.6658 309.208 17.8557 308.909L26.5132 307.728C27.4953 307.594 28.3478 306.984 28.7911 306.097L40.1945 283.291L34.0377 303.813C33.4603 305.738 34.9016 307.675 36.9112 307.675H46.2079C47.3238 307.675 48.3476 307.056 48.8654 306.067L69.5683 266.544L125.531 263.722L151.975 300.084L153.593 298.907L151.976 300.084C152.54 300.86 153.442 301.319 154.402 301.319H162.153C164.308 301.319 165.76 299.113 164.908 297.133L155.154 274.462L172.001 298.571L173.641 297.425L172.001 298.571C172.563 299.374 173.481 299.852 174.46 299.852H184.915C187.228 299.852 188.671 297.346 187.509 295.346L162.688 252.598L178.159 234.398C178.62 233.855 178.873 233.166 178.873 232.455V200.354C178.873 199.783 178.71 199.225 178.404 198.743L176.726 199.811L178.404 198.743ZM162.23 253.137L162.232 253.134C162.232 253.135 162.231 253.136 162.23 253.137Z" fill="#DD8D13" stroke="white" stroke-width="4"/>
<path d="M160.361 221.746L156.866 225.972C156.453 226.472 155.681 226.452 155.293 225.932L152.148 221.706C151.657 221.046 152.127 220.109 152.95 220.109L159.591 220.109C160.437 220.109 160.901 221.094 160.361 221.746Z" fill="black"/>
<path d="M160.361 231.185L156.866 226.958C156.453 226.459 155.681 226.478 155.293 226.999L152.148 231.225C151.657 231.884 152.127 232.822 152.95 232.822L159.591 232.822C160.437 232.822 160.901 231.836 160.361 231.185Z" fill="black"/>
<rect x="151.937" y="213.265" width="8.80106" height="8.80106" rx="1" fill="#0B883A"/>
<circle cx="148.025" cy="211.308" r="3.91158" fill="black"/>
<circle cx="164.649" cy="211.308" r="3.91158" fill="black"/>
<circle cx="132.379" cy="224.998" r="5.86737" fill="#EC141E"/>
<circle cx="132.379" cy="240.646" r="5.86737" fill="#EC141E"/>
<circle cx="127.489" cy="255.313" r="5.86737" fill="#EC141E"/>
<circle cx="113.799" cy="236.734" r="5.86737" fill="#EC141E"/>
<circle cx="107.931" cy="216.197" r="5.86737" fill="#EC141E"/>
<circle cx="124.556" cy="216.197" r="5.86737" fill="#EC141E"/>
<circle cx="106.954" cy="250.423" r="5.86737" fill="#EC141E"/>
<circle cx="91.3072" cy="237.711" r="5.86737" fill="#EC141E"/>
<circle cx="93.263" cy="224.021" r="5.86737" fill="#EC141E"/>
<circle cx="79.5724" cy="215.22" r="5.86737" fill="#EC141E"/>
<circle cx="67.8377" cy="223.042" r="5.86737" fill="#EC141E"/>
<circle cx="72.7272" cy="238.69" r="5.86737" fill="#EC141E"/>
<circle cx="89.3514" cy="252.379" r="5.86737" fill="#EC141E"/>
<circle cx="62.9482" cy="255.313" r="5.86737" fill="#EC141E"/>
<circle cx="56.103" cy="240.646" r="5.86737" fill="#EC141E"/>
<circle cx="42.4124" cy="252.379" r="5.86737" fill="#EC141E"/>
<circle cx="48.2798" cy="226.954" r="5.86737" fill="#EC141E"/>
<circle cx="36.545" cy="219.132" r="5.86737" fill="#EC141E"/>
<circle cx="32.6335" cy="199.573" r="5.86737" fill="#EC141E"/>
<circle cx="44.3682" cy="190.773" r="5.86737" fill="#EC141E"/>
<circle cx="59.0367" cy="191.748" r="5.86737" fill="#EC141E"/>
<circle cx="81.5282" cy="187.838" r="5.86737" fill="#EC141E"/>
<circle cx="95.2188" cy="188.816" r="5.86737" fill="#EC141E"/>
<path d="M49.6381 94.2672L51.5025 93.7493L52.0817 95.5956L59.0222 117.719L71.3296 119.722L63.8357 112.228L63.2499 111.642L63.2499 110.814L63.2499 70.153L63.2499 69.3246L63.8357 68.7388L93.9887 38.5858L94.5745 38L95.4029 38L137.434 38L138.29 38L138.881 38.6191L167.664 68.7721L168.217 69.3517L168.217 70.153L168.217 112.641L168.217 113.481L167.618 114.068L145.148 136.13L178.054 143.122L177.638 147.079L47.4322 147.079L45.4322 147.079L45.4322 145.079L45.4322 119.751L40.0146 98.9834L39.5177 97.0785L41.4146 96.5515L49.6381 94.2672Z" fill="#B88A0B" stroke="white" stroke-width="4"/>
<rect width="29.0504" height="29.0504" transform="matrix(-0.707107 0.707107 0.707107 0.707107 91.765 92.54)" fill="#EE7CAD"/>
<rect width="29.0504" height="29.0504" transform="matrix(-0.983933 -0.17854 -0.17854 0.983933 164.389 77.624)" fill="#019542"/>
<rect width="29.0504" height="29.0504" transform="matrix(-0.889586 0.456768 0.456768 0.889586 134.673 42.2852)" fill="#FFDF38"/>
<rect width="29.0504" height="29.0504" transform="matrix(-1 8.74228e-08 8.74228e-08 1 136.977 100.764)" fill="#E40614"/>
<rect width="20.2167" height="20.2167" transform="matrix(-0.606774 0.794874 0.794874 0.606774 99.8922 50.5088)" fill="#EF7EB1"/>
<rect width="17.3843" height="17.3843" transform="matrix(-0.982532 0.186094 0.186094 0.982532 109.071 71.5244)" fill="#01933B"/>
<rect width="18.2746" height="18.2746" transform="matrix(-0.998114 -0.0613904 -0.0613904 0.998114 126.556 79.4121)" fill="#1D4FA3"/>
<path d="M358.895 355.368C358.895 355.368 358.892 355.373 358.886 355.382C358.892 355.372 358.895 355.368 358.895 355.368ZM294.718 328.275L220.687 328.275C217.673 328.275 216.541 332.222 219.098 333.819L247.53 351.576L218.054 371.432C215.613 373.076 216.753 376.887 219.697 376.92L265.62 377.437L277.305 404.31C277.481 404.715 277.744 405.075 278.075 405.367L303.066 427.344L288.917 434.553C286.107 435.985 287.126 440.226 290.279 440.226L322.151 440.226C322.911 440.226 323.643 439.938 324.198 439.419L385.791 381.894C387.066 380.704 387.066 378.673 385.769 377.488C381.173 373.29 374.599 367.281 369.082 362.226C366.323 359.699 363.83 357.411 361.98 355.707C361.054 354.856 360.292 354.151 359.738 353.637C359.461 353.38 359.238 353.172 359.074 353.018C359.035 352.981 359 352.948 358.968 352.918C358.934 352.886 358.904 352.857 358.879 352.833C358.825 352.781 358.807 352.763 358.808 352.765C358.555 352.505 358.188 352.271 357.72 352.185C357.269 352.102 356.882 352.186 356.617 352.288C356.154 352.467 355.877 352.767 355.794 352.86C355.581 353.095 355.434 353.356 355.358 353.497C355.176 353.832 354.975 354.286 354.769 354.789C354.345 355.82 353.789 357.328 353.136 359.182C351.826 362.902 350.086 368.136 348.175 374.025C344.633 384.941 340.482 398.159 337.34 408.293L297.39 329.912C296.878 328.907 295.845 328.275 294.718 328.275ZM304.172 428.317C304.172 428.317 304.171 428.316 304.171 428.316L304.172 428.317Z" fill="#BE2020" stroke="white" stroke-width="4"/>
<path d="M330.205 418.555L303.663 354.581C303.433 354.027 302.77 353.799 302.248 354.094L280.743 366.244C280.181 366.561 280.063 367.321 280.502 367.794L328.548 419.618C329.307 420.436 330.633 419.585 330.205 418.555Z" fill="#457EEB"/>
<path d="M254.097 346.998L254.301 334.802C254.31 334.244 253.86 333.786 253.301 333.786L232.293 333.785C231.273 333.785 230.908 335.132 231.787 335.648L252.592 347.844C253.252 348.231 254.084 347.763 254.097 346.998Z" fill="#FFED0A"/>
<path d="M254.069 370.535L254.069 356.107C254.069 355.316 253.194 354.838 252.529 355.265L230.03 369.693C229.19 370.232 229.572 371.535 230.57 371.535L253.069 371.535C253.621 371.535 254.069 371.087 254.069 370.535Z" fill="#FFED0A"/>
<circle cx="269.258" cy="341.529" r="4.3491" transform="rotate(0.645302 269.258 341.529)" fill="black" stroke="black"/>
<circle cx="277.572" cy="378.482" r="3.87928" transform="rotate(0.645302 277.572 378.482)" fill="black"/>
<circle cx="288.129" cy="388.299" r="3.87928" transform="rotate(0.645302 288.129 388.299)" fill="black"/>
<circle cx="285.091" cy="399.903" r="3.87928" transform="rotate(0.645302 285.091 399.903)" fill="black"/>
<circle cx="296.726" cy="400.034" r="3.87928" transform="rotate(0.645302 296.726 400.034)" fill="black"/>
<circle cx="298.535" cy="411.693" r="3.87928" transform="rotate(0.645302 298.535 411.693)" fill="black"/>
<circle cx="312.113" cy="411.848" r="3.87928" transform="rotate(0.645302 312.113 411.848)" fill="black"/>
<path d="M231.931 301.737L231.361 302.774H230.178H221.573H219.215L219.6 300.447L233.267 217.94L233.343 217.482L233.612 217.105L256.39 185.215L256.989 184.378H258.018H352.166H352.915L353.48 184.87L369.171 198.537L369.712 199.007L369.83 199.714L383.497 281.208L383.888 283.539H381.525H376.463H374.896L374.521 282.017L368.282 256.693L361.228 301.087L360.96 302.774H359.253H345.08H342.725L343.106 300.45L346.658 278.817L334.704 301.7L334.143 302.774H332.932H316.734H313.495H313.458H311.166H295.981H294.232L293.999 301.04L290.77 277.006L284.246 301.293L283.848 302.774H282.314H265.61H262.963L263.687 300.227L275.945 257.076L261.751 247.474L231.931 301.737ZM314.955 299.86L332.186 266.329H307.927L313.143 300.472L313.486 302.718L314.955 299.86Z" fill="#B7B7B7" stroke="white" stroke-width="4"/>
<path d="M265.611 241.552L260.549 229.403L234.734 245.601L265.611 241.552Z" fill="#E7051B"/>
<path fill-rule="evenodd" clip-rule="evenodd" d="M277.755 190.933C277.755 190.933 277.756 190.933 277.756 190.933C293.411 190.933 306.102 203.623 306.102 219.278C306.102 234.933 293.411 247.624 277.756 247.624C277.756 247.624 277.755 247.624 277.755 247.624V190.933Z" fill="#488A05"/>
<circle r="4.04941" transform="matrix(-1 0 0 1 262.574 209.155)" fill="black"/>
<path d="M345 0L349.21 9.83733L359.142 5.85786L355.163 15.7905L365 20L355.163 24.2095L359.142 34.1421L349.21 30.1627L345 40L340.79 30.1627L330.858 34.1421L334.837 24.2095L325 20L334.837 15.7905L330.858 5.85786L340.79 9.83733L345 0Z" fill="#89FCFB"/>
</svg>
