<svg width="363" height="462" viewBox="0 0 363 462" fill="none" xmlns="http://www.w3.org/2000/svg">
<g clip-path="url(#clip0_156_58)">
<path fill-rule="evenodd" clip-rule="evenodd" d="M326.83 229.7C323.46 222.13 314.59 218.74 307.03 222.11C283.45 232.63 259.91 243.3 236.47 254.23C221.52 221.97 205.98 190.1 190.55 158.59C220.95 138.16 251.66 118.17 283.09 98.8702C290.14 94.5302 292.35 85.3002 288.02 78.2402C283.68 71.1802 274.44 68.9702 267.38 73.3102C252.97 82.1602 238.74 91.1502 224.6 100.23C224.58 100.24 224.58 100.24 224.57 100.25C223.98 100.91 223.31 101.53 222.58 102.09C221.16 103.18 219.62 103.98 218.01 104.49C218.01 104.49 218.01 104.5 218 104.5C204.29 113.37 190.7 122.36 177.18 131.44C169.88 116.78 162.39 102.15 154.38 87.7202C151.08 87.6502 147.78 86.5002 145.06 84.2102C139.49 79.5402 138.17 71.6802 141.53 65.5302V65.5202C135.96 56.3202 130.11 47.2502 123.9 38.3502C119.16 31.5502 109.81 29.8802 103.01 34.6202C96.2201 39.3602 94.5501 48.7102 99.2901 55.5102C119.55 84.5602 135.92 115.74 152.1 148.39C130.58 163.05 109.21 177.88 87.8701 192.77C84.5401 185.22 81.2001 177.66 77.8701 170.1C61.5301 133.07 45.1801 96.0102 28.7101 58.9902C25.3501 51.4202 16.4801 48.0202 8.91008 51.3802C1.34008 54.7502 -2.05992 63.6102 1.30008 71.1802C17.6901 108.03 33.9901 144.98 50.3101 181.96C54.4701 191.4 58.6401 200.84 62.8101 210.28C61.7001 211.05 60.6001 211.83 59.4901 212.6C52.8601 217.24 46.2301 221.88 39.6001 226.51C32.8101 231.26 31.1501 240.61 35.8901 247.4C40.6301 254.19 49.9901 255.85 56.7801 251.1C62.9201 246.81 69.0501 242.53 75.1701 238.25C86.7601 264.48 98.3801 290.69 110.07 316.87C86.8901 329.2 63.9301 341.96 41.2601 355.27C34.1101 359.46 31.7201 368.65 35.9201 375.8C40.1101 382.94 49.3001 385.33 56.4401 381.14C78.1301 368.41 100.13 356.16 122.36 344.32C138.57 380.46 154.92 416.51 171.5 452.39C174.97 459.91 183.89 463.19 191.41 459.71C198.93 456.24 202.21 447.33 198.73 439.81C181.93 403.47 165.38 366.97 148.97 330.37C173.01 317.98 197.3 306 221.79 294.33C234.46 322.58 246.46 351.04 257.36 379.78C260.3 387.52 268.97 391.42 276.71 388.48C284.45 385.54 288.35 376.88 285.41 369.14C282.81 362.29 280.15 355.46 277.44 348.64C264.62 343.05 254.63 332.18 254.32 317.96C254.2 312.28 255.63 307.09 258.2 302.53V302.52C255.15 295.5 252.06 288.51 248.93 281.53C272.24 270.66 295.7 260.02 319.25 249.51C326.81 246.13 330.21 237.26 326.83 229.7ZM136.7 302.94C124.49 275.59 112.35 248.18 100.23 220.74C121.98 205.54 143.68 190.46 165.46 175.58C180.33 205.95 195.14 236.39 209.34 267.02C184.96 278.64 160.73 290.58 136.7 302.94Z" fill="#89FCFB"/>
<path fill-rule="evenodd" clip-rule="evenodd" d="M224.57 100.25C223.98 100.91 223.31 101.53 222.58 102.09C221.16 103.18 219.62 103.98 218.01 104.49C220.19 103.07 222.38 101.66 224.57 100.25Z" fill="#89FCFB"/>
<path fill-rule="evenodd" clip-rule="evenodd" d="M360.63 310.07C352.01 296.05 337.35 287.37 322.71 283.46C308.06 279.53 291.34 279.8 277.16 286.11C269.13 289.68 262.26 295.33 258.2 302.52V302.53C255.63 307.09 254.2 312.28 254.32 317.96C254.63 332.18 264.62 343.05 277.44 348.64C277.69 348.75 277.94 348.86 278.19 348.96C293.84 355.5 311.39 354.55 324.99 346.06C331.2 342.19 336.28 336.94 339.85 330.61C344.53 333.57 350.68 333.8 355.72 330.7C362.77 326.36 364.97 317.12 360.63 310.07ZM309.12 320.61C304.54 323.47 297.31 324.44 289.74 321.28C286.83 320.06 285.39 318.75 284.77 317.99C284.51 317.66 284.39 317.43 284.34 317.31C284.38 317.21 284.47 317.03 284.66 316.78C285.18 316.09 286.5 314.79 289.35 313.52C296.1 310.52 305.59 309.93 314.95 312.44C315 312.45 315.04 312.46 315.08 312.47C314.05 316.41 311.74 318.97 309.12 320.61Z" fill="#D7E977"/>
<path fill-rule="evenodd" clip-rule="evenodd" d="M250.28 40.0001C237.11 48.1101 223.28 54.8701 210.02 61.2401C215.14 67.8401 220.23 74.4501 225.32 81.0601C229.8 86.8801 229.34 94.9601 224.6 100.23C224.58 100.24 224.58 100.24 224.57 100.25C222.38 101.66 220.19 103.07 218.01 104.49C218.01 104.49 218.01 104.5 218 104.5C212.15 106.37 205.5 104.5 201.54 99.3501C195.2 91.1101 188.86 82.8901 182.51 74.7101C177.82 77.1301 173.22 79.6301 168.7 82.2601C167.19 83.1401 165.82 83.7201 164.85 84.1001C164.6 84.2001 164.35 84.3001 164.14 84.3801C161.33 86.6501 157.86 87.7801 154.38 87.7201C151.08 87.6501 147.78 86.5001 145.06 84.2101C139.49 79.5401 138.17 71.6801 141.53 65.5301V65.5201C142 64.6701 142.55 63.8501 143.2 63.0801C146.47 59.1801 150.32 57.5501 152.19 56.8201C152.6 56.6601 153 56.5101 153.25 56.4201L153.31 56.3901C153.58 56.3001 153.72 56.2501 153.83 56.2001C157.1 54.2901 160.41 52.4601 163.73 50.6801C156.81 41.8901 149.84 33.1401 142.81 24.4301C137.6 17.9901 138.6 8.54007 145.05 3.34007C151.49 -1.86993 160.94 -0.869931 166.14 5.58007C174.57 16.0101 182.9 26.4901 191.15 37.0101C191.7 36.7501 192.26 36.4801 192.81 36.2201C193.7 35.7901 194.59 35.3701 195.47 34.9401C209.31 28.3101 222.37 21.9401 234.56 14.4501C241.61 10.1101 250.85 12.3101 255.19 19.3701C259.53 26.4201 257.33 35.6601 250.28 40.0001Z" fill="#7FDEA6"/>
<path fill-rule="evenodd" clip-rule="evenodd" d="M224.57 100.25C223.98 100.91 223.31 101.53 222.58 102.09C221.16 103.18 219.62 103.98 218.01 104.49C220.19 103.07 222.38 101.66 224.57 100.25Z" fill="#7FDEA6"/>
</g>
<defs>
<clipPath id="clip0_156_58">
<rect width="362.85" height="461.1" fill="white"/>
</clipPath>
</defs>
</svg>
