<svg width="387" height="243" viewBox="0 0 387 243" fill="none" xmlns="http://www.w3.org/2000/svg">
<path d="M78.7028 70.0386L32.0827 0H2.63178V1.63173C5.63953 2.63586 7.51938 3.64 12.1563 10.2924L12.407 10.669V72.6745C12.407 85.6028 11.0284 87.611 0 88.9917V91H30.9548V88.9917C19.801 87.611 18.4225 85.6028 18.4225 72.6745V19.7062L65.9199 91H84.593V18.3255C84.593 5.14621 85.9716 3.64 97 2.00827V0H66.1705V2.00827C77.199 3.64 78.5775 5.14621 78.5775 18.3255V70.0386H78.7028Z" fill="#9C9C9C"/>
<path d="M344.79 151.306V153.332C355.747 154.979 357.116 156.499 357.116 169.797V179.549C357.116 188.541 350.517 190.061 343.046 190.061C325.49 190.061 315.28 173.216 315.28 147.253C315.28 120.784 327.109 103.939 342.548 103.939C358.735 103.939 368.074 120.91 372.681 133.575H375.295L372.307 104.066C364.836 100.773 352.136 99 342.673 99C316.276 99 291 116.478 291 147.253C291 178.156 312.914 195 340.183 195C354.875 195 370.439 191.327 378.657 185.248V169.797C378.657 156.499 377.537 154.979 387 153.332V151.306H344.79Z" fill="#9C9C9C"/>
<rect x="20.6123" y="77.67" width="290" height="144.5" rx="6.5" transform="rotate(-15 20.6123 77.67)" fill="#EEFDDE" stroke="black"/>
<path d="M61.7598 99.0211L50.6774 89.2816L45.6836 90.6197L45.7576 90.8959C46.3131 90.9293 46.6775 91.0139 47.7655 91.9295L47.8251 91.9818L50.6379 102.48C51.2244 104.668 51.0818 105.071 49.2744 105.806L49.3655 106.146L54.6143 104.739L54.5232 104.399C52.5693 104.672 52.2444 104.395 51.6579 102.206L49.2551 93.2385L60.5432 103.151L63.7095 102.302L60.4126 89.9983C59.8148 87.7671 59.9802 87.4494 61.7762 86.6721L61.6851 86.3321L56.4575 87.7328L56.5486 88.0728C58.4927 87.848 58.7947 88.0404 59.3926 90.2717L61.7385 99.0268L61.7598 99.0211Z" fill="black"/>
<path d="M72.139 100.34C74.6891 99.6564 75.8398 97.321 76.297 95.627L75.985 95.4828C75.4929 96.3663 74.3473 97.106 73.2636 97.3964C70.9473 98.017 68.7621 96.9171 68.0105 94.112C67.965 93.942 67.9407 93.7663 67.8951 93.5963L75.354 91.5977C74.479 88.7574 72.1167 87.5911 69.3116 88.3427C66.2516 89.1626 64.4205 92.6142 65.3771 96.1842C66.2198 99.3293 68.8027 101.234 72.139 100.34ZM69.2108 89.3263C70.4858 88.9847 71.4251 89.9401 71.9387 91.6018L67.7099 92.7349C67.3974 90.9738 67.8933 89.6794 69.232 89.3206L69.2108 89.3263Z" fill="black"/>
<path d="M88.2551 95.7253L90.8902 95.0193L90.8218 85.2439C90.7829 83.5689 91.0038 83.373 92.1198 82.7779L92.0344 82.4591L88.0818 83.5182L88.1672 83.837C89.2882 83.8555 89.7686 83.8634 89.8041 86.2909L89.8858 91.7809L85.468 84.2186L83.258 84.8108L83.264 93.4185L80.1283 87.8359C79.5347 86.8106 79.4436 86.4706 80.8358 85.8014L80.7504 85.4827L74.3753 87.1909L74.4607 87.5096C75.491 87.5297 75.7734 87.8184 76.2349 88.6058L81.4975 97.536L84.1326 96.83L84.2279 88.8556L88.2339 95.731L88.2551 95.7253Z" fill="black"/>
<path d="M101.17 83.9515C102.084 83.7067 102.62 82.9025 102.398 82.0738C102.033 80.7137 100.112 80.0897 98.0086 80.6534C95.0973 81.4335 92.8014 84.8501 93.7807 88.5052C94.6804 91.8627 97.3509 93.5842 100.496 92.7415C102.961 92.081 103.654 89.8226 104.099 88.3369L103.787 88.1928C103.261 88.9487 102.471 89.5704 101.451 89.8437C98.9005 90.527 97.1099 88.7747 96.421 86.2034C95.6523 83.3346 96.994 81.8818 97.7377 81.6825C98.0565 81.5971 98.2125 81.6692 98.4736 81.9637L99.7749 83.5054C100.211 84.0264 100.681 84.0825 101.17 83.9515Z" fill="black"/>
<path d="M108.94 77.7244C105.391 78.6753 103.789 82.1337 104.586 85.1087C105.56 88.7425 108.664 90.5528 112.128 89.6246C115.698 88.668 117.344 85.289 116.484 82.0802C115.545 78.5739 112.297 76.8248 108.94 77.7244ZM108.948 78.5194C111.073 77.95 112.457 81.5876 113.021 83.6914C113.63 85.9652 113.884 88.357 112.205 88.8068C110.059 89.3819 108.647 85.7288 108.055 83.5188C107.417 81.1387 107.311 78.9579 108.948 78.5194Z" fill="black"/>
<path d="M128.488 76.8139C128.38 76.4101 128.229 76.0178 128.057 75.6311C128.3 75.1787 128.87 74.7529 129.486 74.5878C130.57 74.2974 131.45 74.9496 131.878 76.5434L132.971 80.6235C133.534 82.7273 133.587 83.0092 132.464 83.4924L132.555 83.8324L138.633 82.2039L138.542 81.8639C137.051 82.0811 136.983 81.8261 136.413 79.7011L135.155 75.0047C134.398 72.1784 132.564 71.3714 130.801 71.844C128.909 72.3508 128.21 73.9048 127.82 75.1708C126.893 73.6655 125.509 73.2618 124.149 73.6263C122.3 74.1216 121.646 75.5041 121.304 76.78L120.627 74.5927L116.266 77.3557L116.357 77.6957C117.776 77.3837 117.87 77.5635 118.371 79.4335L119.647 84.1936C120.216 86.3187 120.285 86.5737 118.885 87.1309L118.976 87.4709L125.075 85.8367L124.984 85.4967C123.748 85.6455 123.659 85.3962 123.095 83.2924L121.506 77.3636C121.74 76.9594 122.16 76.5735 122.84 76.3913C123.924 76.1009 124.805 76.7531 125.232 78.3469L126.325 82.427C126.889 84.5307 126.942 84.8127 125.818 85.2959L125.909 85.6359L131.987 84.0074L131.896 83.6674C130.405 83.8846 130.337 83.6296 129.768 81.5045L128.509 76.8082L128.488 76.8139Z" fill="black"/>
<path d="M144.768 80.8788C147.318 80.1956 148.469 77.8601 148.926 76.1661L148.614 76.0219C148.122 76.9054 146.976 77.6451 145.892 77.9355C143.576 78.5561 141.391 77.4562 140.639 74.6512C140.594 74.4812 140.57 74.3055 140.524 74.1355L147.983 72.1369C147.108 69.2965 144.746 68.1302 141.941 68.8818C138.881 69.7018 137.049 73.1533 138.006 76.7234C138.849 79.8684 141.432 81.7728 144.768 80.8788ZM141.84 69.8655C143.115 69.5238 144.054 70.4793 144.568 72.141L140.339 73.2741C140.026 71.5129 140.522 70.2185 141.861 69.8598L141.84 69.8655Z" fill="black"/>
<path d="M153.567 69.0463C153.828 68.4069 154.189 67.9686 154.465 67.8945C154.635 67.849 154.705 67.8532 155.132 68.1715L155.97 68.8351C156.403 69.1747 156.553 69.2256 157.063 69.0889C157.913 68.8612 158.558 67.8684 158.216 66.5934C157.898 65.4034 156.929 64.934 155.803 65.2358C154.464 65.5945 153.857 67.2377 153.338 68.4472L152.625 66.0417L148.264 68.8047L148.355 69.1447C149.774 68.8326 149.868 69.0125 150.369 70.8825L151.645 75.6426C152.214 77.7677 152.282 78.0227 150.883 78.5799L150.974 78.9199L157.604 77.1433L157.513 76.8033C155.831 77.0718 155.657 76.8452 155.087 74.7202L153.567 69.0463Z" fill="black"/>
<path d="M64.0198 118.644L65.6141 124.594L58.2537 126.567L56.6594 120.617L54.6889 121.145L58.4418 135.15L60.4123 134.622L58.7093 128.267L66.0696 126.294L67.7727 132.65L69.7431 132.122L65.9903 118.116L64.0198 118.644Z" fill="black"/>
<path d="M72.6178 125.824C71.8568 122.984 73.0893 121.556 74.6928 121.127C76.2962 120.697 78.0929 121.375 78.8383 124.157C79.5527 126.823 78.3668 128.424 76.7633 128.854C75.1599 129.284 73.3632 128.606 72.6178 125.824ZM74.2787 119.581C71.8638 120.228 69.7345 122.559 70.7439 126.326C71.7533 130.093 74.7626 131.046 77.1774 130.399C79.5922 129.752 81.7216 127.422 80.7122 123.655C79.7028 119.888 76.6935 118.934 74.2787 119.581Z" fill="black"/>
<path d="M81.3155 117.882L84.1004 128.275L88.9301 126.981C91.1517 126.386 92.5995 125.066 92.0197 122.903C91.647 121.512 90.6582 120.99 89.4936 120.97C90.3508 120.306 90.6267 119.404 90.3317 118.303C89.7674 116.197 87.9225 116.112 85.8361 116.671L81.3155 117.882ZM84.2434 121.777L83.4824 118.937L86.0711 118.243C87.3848 117.891 88.2583 117.906 88.5482 118.988C88.8639 120.166 88.1844 120.721 86.89 121.068L84.2434 121.777ZM84.6316 123.226L87.3748 122.491C88.9976 122.056 89.8687 122.216 90.1793 123.375C90.4691 124.457 89.7961 125.113 88.2507 125.527L85.4495 126.278L84.6316 123.226Z" fill="black"/>
<path d="M101.827 123.525L103.585 123.054L100.8 112.661L99.0421 113.132L95.7731 122.414L93.6715 114.571L91.9136 115.042L94.6984 125.436L96.4564 124.964L99.7254 115.682L101.827 123.525Z" fill="black"/>
<path d="M114.022 120.258L111.237 109.864L109.479 110.335L110.747 115.069C109.843 115.559 109.063 115.892 108.387 116.074C106.919 116.467 106.045 116.142 105.631 114.597L104.823 111.583L103.065 112.054L103.971 115.435C104.577 117.695 105.975 118.356 108.158 117.771C109.105 117.517 109.996 117.133 111.135 116.517L112.264 120.729L114.022 120.258Z" fill="black"/>
<path d="M116.519 114.06C115.758 111.22 116.991 109.793 118.594 109.363C120.198 108.934 121.994 109.612 122.74 112.394C123.454 115.059 122.268 116.661 120.665 117.091C119.061 117.52 117.264 116.842 116.519 114.06ZM118.18 107.818C115.765 108.465 113.636 110.795 114.645 114.562C115.655 118.33 118.664 119.283 121.079 118.636C123.494 117.989 125.623 115.659 124.614 111.891C123.604 108.124 120.595 107.171 118.18 107.818Z" fill="black"/>
<path d="M134.686 114.721L136.869 114.136L131.072 109.809L133.678 103.851L131.592 104.41L129.427 109.546L128.133 109.892L126.994 105.642L125.217 106.119L128.002 116.512L129.779 116.036L128.542 111.419L129.875 111.061L134.686 114.721Z" fill="black"/>
<path d="M267.216 32.0322L261.977 12.4785L281.531 7.23912L286.77 26.7928L274.373 19.6357L267.216 32.0322Z" fill="#FF003D"/>
<rect x="255.878" y="126.285" width="55.9348" height="25.5696" rx="9.5" transform="rotate(-15 255.878 126.285)" fill="white" stroke="black"/>
<path d="M273.344 127.015C271.098 127.617 270.018 129.382 270.621 131.456L271.983 131.092C271.56 129.341 272.48 128.427 273.61 128.124C274.871 127.786 275.775 128.321 276.07 129.422C276.571 131.291 274.925 133.844 271.95 137.576L272.268 138.764L279.831 136.738L279.501 135.506L273.735 137.051C276.105 134.133 278.066 131.309 277.414 128.875C276.937 127.093 275.286 126.495 273.344 127.015Z" fill="black"/>
<path d="M295.695 132.547C294.979 132.739 294.29 132.924 293.602 133.108C293.224 133.209 292.849 133.318 292.468 133.407C291.968 133.524 291.409 133.255 291.195 132.81C290.959 132.318 291.067 131.749 291.467 131.403C291.539 131.342 291.62 131.293 291.719 131.221C291.086 131.194 290.651 130.907 290.495 130.288C290.364 129.77 290.597 129.332 291.15 128.967C290.851 128.987 290.589 128.923 290.356 128.753C290.123 128.584 289.966 128.359 289.897 128.077C289.769 127.555 290.011 127.043 290.526 126.749C290.484 126.74 290.455 126.729 290.426 126.728C289.846 126.709 289.353 126.287 289.282 125.746C289.201 125.132 289.538 124.611 290.131 124.451C292.044 123.935 293.958 123.422 295.873 122.913C296.343 122.788 296.813 122.656 297.292 122.574C297.82 122.484 298.342 122.58 298.841 122.792C298.898 122.816 298.956 122.89 298.973 122.951C299.618 125.34 300.259 127.73 300.892 130.121C300.912 130.192 300.875 130.301 300.828 130.364C300.092 131.326 299.501 132.369 299.158 133.551C298.966 134.21 298.894 134.885 298.895 135.575C298.895 136.46 298.032 137.028 297.244 136.672C296.899 136.516 296.684 136.241 296.585 135.87C296.306 134.829 296.027 133.789 295.749 132.749C295.732 132.688 295.716 132.628 295.695 132.547Z" fill="black"/>
<path d="M300.828 126.374C300.507 125.176 300.186 123.978 299.865 122.781C299.738 122.307 299.909 121.999 300.367 121.876C300.848 121.745 301.33 121.616 301.811 121.489C302.246 121.375 302.558 121.561 302.678 122.01C303.324 124.417 303.969 126.823 304.613 129.23C304.736 129.687 304.558 130.009 304.116 130.129C303.635 130.259 303.154 130.388 302.673 130.515C302.23 130.632 301.919 130.442 301.796 129.984C301.472 128.78 301.151 127.577 300.828 126.374Z" fill="black"/>
<path d="M234 243H225.5L195 187.5L178 199L190.5 243H174L165 209.5L160.5 243H145.5L151 207H121.5L140 243H124L106.5 209.5L112 243H98L89.5 189.5L81 224H76L89.5 143.5L105 130H198L220.5 161.5L234 243Z" fill="#B7B7B7"/>
<path d="M190.499 184.5L195.499 172.5L220.999 188.5L190.499 184.5Z" fill="#E7051B"/>
<path fill-rule="evenodd" clip-rule="evenodd" d="M178.501 134.5C178.501 134.5 178.501 134.5 178.501 134.5C163.037 134.5 150.501 147.036 150.501 162.5C150.501 177.964 163.037 190.5 178.501 190.5C178.501 190.5 178.501 190.5 178.501 190.5V134.5Z" fill="#488A05"/>
<circle cx="193.499" cy="152.5" r="4" fill="black"/>
</svg>
