<svg width="310" height="339" viewBox="0 0 310 339" fill="none" xmlns="http://www.w3.org/2000/svg">
<path d="M58.6681 51.0455L62.6054 51.5101C65.7662 57.4975 68.9271 63.485 73.3947 73.1994L75.8767 78.5963C79.8033 87.6089 82.2853 93.0058 84.447 99.003L117.053 102.85L117.29 100.837C109.702 98.5378 107.882 97.047 103.262 87.5698L86.314 52.5213C100.436 51.2529 109.791 45.9768 111.276 33.3919C113.415 15.2697 95.7203 7.69492 70.4971 4.71858C69.6358 4.61695 51.5341 2.60855 50.3037 2.46336L30.4942 0.125846L30.2566 2.13942C40.8911 5.0531 42.0663 6.72299 40.507 19.9371L34.0769 74.4296C32.5474 87.392 30.9563 89.2458 19.9655 89.3525L19.7278 91.3661L67.4674 96.9994L67.705 94.9858C55.4413 92.1351 54.2025 89.9473 55.732 76.9849L58.7911 51.06L58.6681 51.0455ZM59.296 46.7812L63.8402 8.2715L68.3927 8.80869C80.9428 10.2896 89.0252 16.8578 87.4065 30.5753C85.7879 44.2928 76.3986 48.7993 63.8485 47.3184L59.296 46.7812Z" fill="#9C9C9C"/>
<path d="M243.282 334.405C263.02 331.345 277.135 316.309 274.665 300.375C272.526 286.574 261.983 280.114 245.046 274.517L230.491 269.706C223.081 267.258 219.29 263.862 218.357 257.84C217.112 249.81 222.929 244.412 231.266 243.12C246.713 240.725 254.544 254.8 260.011 265.773L262.586 265.374L258.521 239.152C252.537 236.996 240.56 236.668 231.365 238.093C212.853 240.963 200.711 254.151 203.026 269.082C204.893 281.126 215.101 288.666 229.533 293.495L241.829 297.499C251.337 300.522 257.696 304.29 258.941 312.32C260.322 321.228 254.047 327.725 243.136 329.416C224.134 332.362 216.649 315.664 210.47 301.718L208.141 302.079L212.828 332.316C220.909 335.046 231.022 336.305 243.282 334.405Z" fill="#9C9C9C"/>
<rect x="19.674" y="95.5274" width="290" height="144.5" rx="6.5" transform="rotate(3.23194 19.674 95.5274)" fill="#FFF0E7" stroke="black"/>
<path d="M59.6431 116.813L53.2732 116.453L49.0237 126.151L45.7831 116.03L38.9959 115.647L38.9761 115.998C40.8929 116.393 41.1196 116.67 40.9894 118.976L40.4523 128.487C40.3246 130.75 40.0631 131.087 38.1166 131.22L38.0967 131.571L43.5221 131.878L43.5419 131.526C41.6007 131.174 41.3789 130.809 41.5067 128.547L42.1243 117.608L46.699 131.418L47.7973 131.48L53.4836 118.58L52.8845 129.189C52.7568 131.452 52.4953 131.789 50.5488 131.922L50.5289 132.273L58.7438 132.737L58.7637 132.386C56.8444 132.035 56.6226 131.67 56.7504 129.408L57.2874 119.897C57.4177 117.59 57.6742 117.34 59.6232 117.164L59.6431 116.813Z" fill="black"/>
<path d="M66.7356 121.135C63.0674 120.928 60.4644 123.712 60.2907 126.787C60.0786 130.543 62.4607 133.234 66.041 133.436C69.7311 133.644 72.3512 130.95 72.5385 127.633C72.7432 124.009 70.2061 121.331 66.7356 121.135ZM66.4945 121.893C68.691 122.017 68.8681 125.905 68.7453 128.08C68.6126 130.43 68.1052 132.781 66.37 132.683C64.1515 132.558 63.9537 128.646 64.0827 126.362C64.2216 123.902 64.8032 121.797 66.4945 121.893Z" fill="black"/>
<path d="M73.7663 123.449C75.2123 123.597 75.2451 123.797 75.1359 125.73L74.8581 130.65C74.734 132.847 74.7192 133.11 73.2156 133.202L73.1958 133.553L79.4997 133.909L79.5196 133.558C78.2995 133.313 78.2924 133.048 78.4152 130.873L78.7612 124.745C79.1093 124.434 79.6294 124.199 80.3323 124.239C81.4525 124.302 82.085 125.197 81.992 126.845L81.7538 131.062C81.6311 133.236 81.593 133.521 80.375 133.628L80.3551 133.98L86.6371 134.334L86.657 133.983C85.1733 133.723 85.1881 133.459 85.3122 131.263L85.5863 126.408C85.7512 123.487 84.2624 122.147 82.4393 122.044C80.5284 121.936 79.4742 123.045 78.7508 124.15L78.7919 121.86L73.7849 123.12L73.7651 123.471L73.7663 123.449Z" fill="black"/>
<path d="M91.9264 134.897C93.7935 135.003 94.8294 133.827 95.7248 132.798L95.4956 132.565C94.8521 133.035 94.2955 133.136 93.8562 133.111C92.7799 133.051 92.4715 132.659 92.5906 130.55L92.9652 123.917L95.8646 124.08L95.9266 122.982L93.0272 122.818L93.2579 118.733L89.6005 121.457L89.5348 122.621L87.6897 122.517L87.6277 123.615L89.4068 123.716L88.9975 130.964C88.8289 133.951 90.1253 134.796 91.9264 134.897Z" fill="black"/>
<path d="M97.1761 118.337L97.1563 118.689C98.6023 118.836 98.635 119.036 98.5259 120.969L97.9057 131.952C97.7817 134.148 97.7668 134.412 96.2633 134.503L96.2434 134.855L102.789 135.224L102.809 134.873C101.325 134.613 101.34 134.349 101.464 132.153L101.81 126.025C102.158 125.714 102.678 125.479 103.381 125.518C104.501 125.582 105.134 126.477 105.041 128.124L104.803 132.341C104.68 134.516 104.642 134.8 103.424 134.908L103.404 135.259L109.686 135.614L109.706 135.262C108.222 135.002 108.237 134.739 108.361 132.542L108.635 127.688C108.8 124.767 107.311 123.427 105.488 123.324C103.577 123.216 102.429 124.429 101.845 125.41L102.038 121.983C102.162 119.786 102.318 118.209 102.404 117.068L97.1761 118.337Z" fill="black"/>
<path d="M45.8078 162.421L50.514 150.026L49.8014 162.646L51.8382 162.761L52.6556 148.284L49.2411 148.091L44.8659 159.944L41.8529 147.674L38.4383 147.481L37.6208 161.958L39.6576 162.073L40.3702 149.453L43.6512 162.299L45.8078 162.421Z" fill="black"/>
<path d="M64.7534 158.703C65.1659 155.301 63.3835 152.456 60.0887 152.27C57.1534 152.104 54.7552 154.132 54.5624 157.547C54.3831 160.721 56.1226 163.264 59.5172 163.455C62.133 163.603 63.9371 162.162 64.5201 160.352L62.6431 160.246C62.124 161.279 61.2048 161.948 59.6074 161.858C58.0299 161.769 56.4157 160.556 56.4866 158.236L64.7534 158.703ZM60.0008 153.827C61.9377 153.937 62.9502 155.516 62.9244 157.037L56.5945 156.68C56.8761 154.532 58.4033 153.737 60.0008 153.827Z" fill="black"/>
<path d="M71.5887 152.919C68.4137 152.74 66.2628 155.002 66.0824 158.197C65.8974 161.472 67.6825 163.916 70.7775 164.091C73.2935 164.233 75.2886 162.603 75.7819 160.608L73.9049 160.502C73.5821 161.605 72.4652 162.584 70.9276 162.497C69.3302 162.407 67.907 161.004 68.0603 158.289C68.2126 155.593 69.7812 154.42 71.3787 154.51C72.7964 154.59 73.8439 155.55 74.0313 156.843L75.8684 156.947C75.7126 155.095 74.2245 153.068 71.5887 152.919Z" fill="black"/>
<path d="M85.7957 153.902L81.5824 153.664C79.1064 153.524 77.5268 154.536 77.4016 156.753C77.3114 158.35 78.1713 159.441 79.5032 159.976L76.0037 164.126L78.2601 164.253L81.392 160.584C81.4907 160.61 81.5905 160.615 81.6904 160.621L83.5874 160.728L83.372 164.542L85.1891 164.644L85.7957 153.902ZM83.8895 155.376L83.6764 159.15L81.5398 159.03C80.2818 158.959 79.1696 158.435 79.2519 156.978C79.3252 155.68 80.2553 155.171 81.5932 155.247L83.8895 155.376Z" fill="black"/>
<path d="M96.6951 163.712L97.2127 154.546L95.3956 154.444L94.878 163.609L89.9659 163.332L90.4834 154.166L88.6663 154.064L88.0597 164.807L96.3864 165.277L96.241 167.853L97.9582 167.95L98.1928 163.796L96.6951 163.712Z" fill="black"/>
<path d="M268.176 129.334L269.318 109.123L289.529 110.264L288.388 130.476L278.853 119.799L268.176 129.334Z" fill="#FF003D"/>
<rect x="160.969" y="211.527" width="55.9348" height="25.5696" rx="9.5" transform="rotate(3.23194 160.969 211.527)" fill="white" stroke="black"/>
<path d="M177.33 217.685C175.009 217.554 173.431 218.892 173.354 221.051L174.762 221.131C174.908 219.336 176.068 218.756 177.236 218.822C178.539 218.895 179.23 219.685 179.166 220.824C179.057 222.756 176.695 224.665 172.702 227.279L172.632 228.507L180.45 228.949L180.522 227.676L174.561 227.339C177.726 225.31 180.472 223.241 180.614 220.725C180.718 218.883 179.337 217.798 177.33 217.685Z" fill="black"/>
<path d="M202.252 223.089C202.992 223.131 203.704 223.17 204.416 223.211C204.805 223.233 205.196 223.248 205.585 223.282C206.097 223.327 206.544 223.758 206.608 224.248C206.678 224.789 206.397 225.295 205.909 225.498C205.822 225.535 205.73 225.555 205.613 225.592C206.206 225.816 206.529 226.225 206.484 226.862C206.446 227.394 206.088 227.738 205.449 227.911C205.739 227.986 205.968 228.129 206.136 228.363C206.304 228.596 206.383 228.86 206.36 229.149C206.318 229.685 205.928 230.096 205.348 230.213C205.384 230.235 205.408 230.255 205.436 230.265C205.981 230.464 206.317 231.019 206.215 231.556C206.1 232.164 205.617 232.553 205.003 232.52C203.025 232.411 201.046 232.299 199.068 232.184C198.583 232.156 198.095 232.134 197.615 232.062C197.085 231.982 196.619 231.728 196.212 231.37C196.165 231.33 196.133 231.242 196.136 231.178C196.271 228.707 196.41 226.237 196.556 223.768C196.56 223.694 196.629 223.601 196.693 223.557C197.693 222.873 198.581 222.068 199.277 221.053C199.665 220.487 199.944 219.868 200.16 219.213C200.437 218.371 201.434 218.102 202.071 218.686C202.35 218.942 202.468 219.271 202.446 219.655C202.385 220.73 202.325 221.805 202.264 222.881C202.26 222.943 202.257 223.006 202.252 223.089Z" fill="black"/>
<path d="M195.445 227.348C195.375 228.586 195.306 229.824 195.235 231.061C195.208 231.551 194.949 231.79 194.475 231.764C193.978 231.737 193.48 231.71 192.983 231.679C192.534 231.652 192.296 231.377 192.322 230.913C192.462 228.425 192.602 225.938 192.743 223.45C192.77 222.978 193.04 222.728 193.497 222.753C193.994 222.779 194.492 222.807 194.989 222.837C195.445 222.864 195.682 223.142 195.655 223.616C195.586 224.86 195.515 226.104 195.445 227.348Z" fill="black"/>
<rect x="227.919" y="215.308" width="55.9348" height="25.5696" rx="9.5" transform="rotate(3.23194 227.919 215.308)" fill="white" stroke="black"/>
<path d="M243.191 232.492L243.805 221.634L242.876 221.582C242.226 222.717 241.39 222.895 239.845 222.853L239.792 223.781L242.308 223.923L241.829 232.415L243.191 232.492Z" fill="black"/>
<path d="M263.777 233.713C263.037 233.671 262.326 233.631 261.614 233.591C261.224 233.569 260.833 233.554 260.444 233.52C259.932 233.475 259.485 233.044 259.421 232.554C259.351 232.013 259.632 231.506 260.12 231.303C260.207 231.267 260.299 231.246 260.416 231.21C259.824 230.986 259.5 230.577 259.545 229.94C259.583 229.407 259.942 229.064 260.581 228.89C260.291 228.816 260.062 228.673 259.894 228.439C259.726 228.205 259.647 227.942 259.669 227.653C259.711 227.117 260.101 226.706 260.682 226.589C260.645 226.567 260.621 226.547 260.593 226.537C260.049 226.337 259.713 225.782 259.814 225.246C259.929 224.638 260.413 224.248 261.027 224.282C263.005 224.391 264.983 224.502 266.961 224.618C267.446 224.646 267.935 224.668 268.415 224.74C268.945 224.82 269.411 225.074 269.818 225.432C269.864 225.472 269.897 225.56 269.894 225.624C269.759 228.094 269.62 230.565 269.473 233.034C269.469 233.108 269.4 233.2 269.336 233.245C268.336 233.929 267.449 234.734 266.753 235.749C266.365 236.315 266.085 236.934 265.87 237.589C265.593 238.431 264.595 238.699 263.959 238.115C263.68 237.859 263.562 237.53 263.583 237.147C263.644 236.071 263.705 234.996 263.766 233.921C263.769 233.858 263.773 233.796 263.777 233.713Z" fill="black"/>
<path d="M270.585 229.455C270.654 228.217 270.724 226.979 270.794 225.741C270.822 225.252 271.08 225.013 271.554 225.039C272.052 225.065 272.549 225.093 273.046 225.123C273.495 225.151 273.733 225.426 273.707 225.89C273.568 228.377 273.427 230.865 273.286 233.352C273.26 233.824 272.99 234.075 272.533 234.05C272.035 234.024 271.538 233.996 271.041 233.966C270.584 233.938 270.348 233.661 270.374 233.187C270.444 231.943 270.514 230.699 270.585 229.455Z" fill="black"/>
<path d="M119.55 213.168L121.333 215.39C121.739 215.896 122.512 215.887 122.906 215.372L124.861 212.819C125.39 212.129 124.846 211.139 123.979 211.215L120.241 211.546C119.446 211.617 119.05 212.545 119.55 213.168Z" fill="black"/>
<path d="M132.305 184.747L137.735 191.816C137.85 191.967 137.921 192.147 137.938 192.337L140.334 219.41C140.355 219.646 140.292 219.882 140.154 220.076L128.169 236.999C127.925 237.345 127.924 237.808 128.168 238.154L152.516 272.668C152.96 273.298 152.555 274.173 151.787 274.241L143.276 274.994C142.95 275.023 142.631 274.891 142.421 274.641L122.004 250.312C121.23 249.389 119.786 250.369 120.357 251.429L133.454 275.714C133.795 276.347 133.378 277.122 132.662 277.185L126.405 277.739C126.086 277.767 125.773 277.641 125.563 277.4L100.256 248.376C100.034 248.121 99.6985 247.996 99.364 248.043L51.4355 254.732C51.0849 254.781 50.7863 255.012 50.6504 255.338L35.9696 290.629C35.8268 290.973 35.5051 291.208 35.1345 291.241L27.5571 291.912C26.8898 291.971 26.3543 291.37 26.4895 290.714L31.7575 265.141C32.0043 263.943 30.2962 263.435 29.8477 264.573L18.9623 292.199C18.8411 292.506 18.576 292.734 18.2538 292.807L11.3247 294.385C10.6063 294.548 9.96375 293.905 10.1278 293.187L19.6501 251.507C19.6791 251.38 19.683 251.248 19.6616 251.12L10.0704 193.544C9.97812 192.99 10.3598 192.469 10.9157 192.39L70.6449 183.876C71.2124 183.795 71.7316 184.207 71.7822 184.778L72.3759 191.485C72.4224 192.01 72.0531 192.481 71.5319 192.561L22.3588 200.13C21.8376 200.21 21.4683 200.681 21.5148 201.207L22.4727 212.027C22.5241 212.607 23.0585 213.021 23.6331 212.925L102.172 199.842C102.514 199.785 102.802 199.555 102.933 199.233L107.891 187.082C108.183 186.368 109.14 186.239 109.61 186.851L114.815 193.626C115.023 193.898 115.356 194.044 115.696 194.013L126.169 193.086C126.521 193.055 126.831 192.84 126.983 192.521L130.609 184.926C130.931 184.252 131.85 184.156 132.305 184.747Z" fill="#CE8515"/>
<path d="M125.38 211.903L123.027 215.321C122.66 215.855 121.889 215.904 121.457 215.42L118.804 212.444C118.257 211.83 118.643 210.855 119.462 210.783L124.468 210.34C125.311 210.265 125.859 211.205 125.38 211.903Z" fill="black"/>
<path d="M126.044 219.399L123.127 216.447C122.671 215.985 121.904 216.073 121.564 216.626L119.475 220.021C119.044 220.721 119.596 221.613 120.415 221.541L125.42 221.098C126.263 221.023 126.638 220.001 126.044 219.399Z" fill="black"/>
<rect x="117.794" y="205.089" width="7.47875" height="7.47875" rx="1" transform="rotate(-5.05905 117.794 205.089)" fill="#0B883A"/>
<circle cx="114.337" cy="203.728" r="3.32389" transform="rotate(-5.05905 114.337 203.728)" fill="black"/>
<circle cx="128.408" cy="202.482" r="3.32389" transform="rotate(-5.05905 128.408 202.482)" fill="black"/>
<circle cx="102.119" cy="216.488" r="4.98583" transform="rotate(-5.05905 102.119 216.488)" fill="#DF0812"/>
<circle cx="103.291" cy="229.732" r="4.98583" transform="rotate(-5.05905 103.291 229.732)" fill="#DF0812"/>
<circle cx="100.252" cy="242.514" r="4.98583" transform="rotate(-5.05905 100.252 242.514)" fill="#DF0812"/>
<circle cx="87.271" cy="227.813" r="4.98583" transform="rotate(-5.05905 87.271 227.813)" fill="#DF0812"/>
<circle cx="80.7657" cy="210.87" r="4.98583" transform="rotate(-5.05905 80.7657 210.87)" fill="#DF0812"/>
<circle cx="94.8372" cy="209.623" r="4.98583" transform="rotate(-5.05905 94.8372 209.623)" fill="#DF0812"/>
<circle cx="82.5027" cy="239.914" r="4.98583" transform="rotate(-5.05905 82.5027 239.914)" fill="#DF0812"/>
<circle cx="68.3064" cy="230.327" r="4.98583" transform="rotate(-5.05905 68.3064 230.327)" fill="#DF0812"/>
<circle cx="68.936" cy="218.591" r="4.98583" transform="rotate(-5.05905 68.936 218.591)" fill="#DF0812"/>
<circle cx="56.6882" cy="212.166" r="4.98583" transform="rotate(-5.05905 56.6882 212.166)" fill="#DF0812"/>
<circle cx="47.3416" cy="219.668" r="4.98583" transform="rotate(-5.05905 47.3416 219.668)" fill="#DF0812"/>
<circle cx="52.6527" cy="232.546" r="4.98583" transform="rotate(-5.05905 52.6527 232.546)" fill="#DF0812"/>
<circle cx="67.75" cy="242.889" r="4.98583" transform="rotate(-5.05905 67.75 242.889)" fill="#DF0812"/>
<circle cx="45.6211" cy="247.35" r="4.98583" transform="rotate(-5.05905 45.6211 247.35)" fill="#DF0812"/>
<circle cx="38.7278" cy="235.447" r="4.98583" transform="rotate(-5.05905 38.7278 235.447)" fill="#DF0812"/>
<circle cx="28.0187" cy="246.406" r="4.98583" transform="rotate(-5.05905 28.0187 246.406)" fill="#DF0812"/>
<circle cx="31.08" cy="224.446" r="4.98583" transform="rotate(-5.05905 31.08 224.446)" fill="#DF0812"/>
<circle cx="20.561" cy="218.703" r="4.98583" transform="rotate(-5.05905 20.561 218.703)" fill="#DF0812"/>
<circle cx="15.7845" cy="202.442" r="4.98583" transform="rotate(-5.05905 15.7845 202.442)" fill="#DF0812"/>
<circle cx="25.0578" cy="194.112" r="4.98583" transform="rotate(-5.05905 25.0578 194.112)" fill="#DF0812"/>
<circle cx="37.5471" cy="193.84" r="4.98583" transform="rotate(-5.05905 37.5471 193.84)" fill="#DF0812"/>
<circle cx="56.2919" cy="188.844" r="4.98583" transform="rotate(-5.05905 56.2919 188.844)" fill="#DF0812"/>
<circle cx="67.9534" cy="188.647" r="4.98583" transform="rotate(-5.05905 67.9534 188.647)" fill="#DF0812"/>
</svg>
