<svg width="33" height="33" viewBox="0 0 33 33" fill="none" xmlns="http://www.w3.org/2000/svg">
<g clip-path="url(#clip0_282_5290)">
<path d="M0.043635 9.79252C0.139461 9.23363 0.213041 8.66876 0.343091 8.11843C1.37835 3.73462 5.19171 0.440348 9.67499 0.041509C15.1088 -0.442062 20.0883 3.35119 21.0167 8.71925C21.6412 12.3293 20.6539 15.4687 18.1231 18.1134C17.0553 19.2294 16.1578 20.4508 15.6059 21.9066C15.2337 22.8892 15.1294 23.8863 15.3287 24.9279C16.032 28.6004 13.2813 32.35 9.5766 32.7959C9.53039 32.8011 9.4859 32.8131 9.44056 32.8268C9.36869 32.8473 9.2934 32.8576 9.21896 32.8576H8.176C8.09301 32.8576 8.01172 32.8439 7.93216 32.8199C7.90135 32.8105 7.8697 32.8028 7.83804 32.7985C4.62616 32.3997 2.02175 29.5727 1.96785 26.3349C1.9285 23.9607 1.57 21.6336 1.15675 19.3056C0.811953 17.3602 0.507364 15.4071 0.199352 13.4557C0.103526 12.8463 0.0752917 12.2249 0 11.6113C0.014545 11.0019 0.02909 10.4019 0.043635 9.79252ZM6.44514 11.678C6.07639 11.601 5.80602 11.2809 5.7949 10.9043C5.73586 8.97088 6.69754 7.26768 8.41642 6.3673C10.3167 5.37191 12.649 5.78445 14.1249 7.35156C14.8855 8.15951 15.3227 9.11638 15.4126 10.2196C15.5127 11.4504 15.1961 12.5407 14.527 13.4642C14.2917 13.7886 14.3166 14.2337 14.598 14.5187C14.6656 14.5871 14.7332 14.6556 14.8008 14.7241C15.1559 15.0836 15.7471 15.0373 16.0448 14.6291C17.2119 13.0277 17.6277 11.1953 17.1811 9.14291C16.3999 5.55422 12.8176 3.28357 9.22067 4.05044C6.39295 4.65383 4.25398 6.9938 3.93228 9.87041C3.76886 11.3288 3.94854 12.7787 4.17527 14.214C4.4944 16.2296 4.87428 18.2349 5.23106 20.2436C5.5194 21.8655 6.80192 23.0535 8.3685 23.1562C9.95134 23.2606 11.4135 22.2687 11.8619 20.7435C12.0142 20.224 12.1014 19.6805 12.169 19.1413C12.5626 16.0045 10.7111 13.0183 7.72596 11.999C7.31271 11.8586 6.88149 11.7687 6.44514 11.678Z" fill="white"/>
<path d="M24.0556 15.4668H32.016C32.4806 15.4668 32.8571 15.8434 32.8571 16.3081V16.5229C32.8571 16.9877 32.4806 17.3643 32.016 17.3643H24.0556C23.5911 17.3643 23.2146 16.9877 23.2146 16.5229V16.3081C23.2146 15.8434 23.5911 15.4668 24.0556 15.4668Z" fill="white"/>
<path d="M31.822 4.80422C31.8442 4.84872 31.8664 4.89409 31.8895 4.93859C32.1094 5.37766 31.9306 5.91087 31.4925 6.13083C29.4494 7.15275 27.4234 8.16611 25.3845 9.18631C24.9464 9.40542 24.4126 9.22825 24.1935 8.78919L24.1259 8.65481C23.9069 8.2166 24.0849 7.68254 24.5238 7.46343C26.5661 6.44237 28.5921 5.42815 30.6318 4.40795C31.069 4.18799 31.6029 4.36515 31.822 4.80422Z" fill="white"/>
<path d="M31.9271 27.8318C31.8792 27.9285 31.8313 28.0244 31.7825 28.1202C31.5849 28.5157 31.104 28.6766 30.7088 28.4788C28.6237 27.4364 26.5455 26.3974 24.4441 25.3463C24.0497 25.1486 23.888 24.6693 24.0848 24.2739C24.1327 24.1772 24.1806 24.0805 24.2294 23.9829C24.4262 23.5858 24.9087 23.4249 25.3049 23.6226C27.3899 24.6659 29.4664 25.7049 31.5695 26.7577C31.9639 26.9554 32.1248 27.4364 31.9271 27.8318Z" fill="white"/>
<path d="M6.05759 13.7925C6.03792 13.6778 6.14144 13.5802 6.25523 13.6016C6.43491 13.635 6.59918 13.6641 6.76003 13.7077C8.71505 14.2418 10.0155 15.8192 10.2337 17.8895C10.3107 18.6196 10.3116 19.3403 10.0686 20.0421C9.80678 20.797 9.32081 21.2095 8.68425 21.236C7.9801 21.2651 7.30932 20.8038 7.1767 20.0969C6.78313 18 6.42721 15.8962 6.05845 13.7942C6.05759 13.7942 6.05759 13.7933 6.05759 13.7925Z" fill="white"/>
</g>
<defs>
<clipPath id="clip0_282_5290">
<rect width="32.8571" height="32.8571" fill="white"/>
</clipPath>
</defs>
</svg>
