<svg width="573" height="739" viewBox="0 0 573 739" fill="none" xmlns="http://www.w3.org/2000/svg">
<path fill-rule="evenodd" clip-rule="evenodd" d="M26.1451 332.242C23.6326 366.002 26.8842 412.248 29.4485 438.416C38.6316 532.126 56.2267 627.646 74.4929 723.387C75.7867 730.168 71.3382 736.714 64.5569 738.008C57.7757 739.301 51.2296 734.853 49.9358 728.072C31.6808 632.39 13.8755 535.837 4.56769 440.854C1.98397 414.488 -1.46838 366.43 1.21411 330.386C1.88898 321.318 2.97197 312.701 4.65171 305.215C6.27512 297.981 8.69607 290.66 12.6959 285.041C17.0426 278.936 24.3029 273.7 34.1104 275.053C42.308 276.184 49.3225 281.684 55.1851 287.964C93.5312 329.037 127.387 383.025 157.675 431.322C166.378 445.2 174.787 458.609 182.923 471.106C208.723 510.738 215.839 522.543 224.907 537.586C231.57 548.639 239.286 561.439 256.239 588.305C259.543 593.542 262.347 599.255 264.851 604.531C265.381 605.647 265.896 606.74 266.401 607.813C268.01 611.228 269.521 614.437 271.107 617.526C270.112 598.96 268.185 574.067 266.007 548.656C261.564 496.833 256.124 443.423 255.592 438.543C253.01 414.861 250.246 391.057 247.476 367.205C242.141 321.264 236.786 275.145 232.67 229.378C232.672 229.393 232.671 229.385 232.667 229.347C232.661 229.299 232.649 229.202 232.629 229.046C232.595 228.79 232.547 228.452 232.482 228.022C232.353 227.159 232.176 226.044 231.953 224.678C231.723 223.261 231.462 221.689 231.172 219.936C230.889 218.228 230.578 216.348 230.238 214.273C228.89 206.045 227.227 195.564 225.862 185.092C224.509 174.711 223.396 163.943 223.237 155.253C223.158 150.972 223.296 146.631 223.941 142.887C224.263 141.024 224.791 138.807 225.765 136.643C226.684 134.602 228.541 131.397 232.204 129.229C238.199 125.682 244.006 127.555 246.843 129.019C249.541 130.413 251.63 132.385 252.828 133.583C254.005 134.759 255.168 136.072 256.014 137.027C256.114 137.139 256.209 137.247 256.3 137.349C257.344 138.525 257.859 139.072 258.163 139.349C268.803 149.053 281.868 162.239 291.102 172.223C329.194 213.405 363.769 257.051 396.56 301.093C401.163 307.276 406.631 315.906 412.241 324.763C415.432 329.799 418.668 334.908 421.819 339.683C420.129 332.27 418.332 322.973 414.414 299.843C400.998 220.641 390.668 140.933 385.129 62.9582C384.289 51.1287 383.443 32.5956 385.026 19.2157C385.052 18.9952 385.063 18.8366 385.084 18.5186C385.102 18.2403 385.129 17.8398 385.181 17.1687C385.259 16.1629 385.409 14.4376 385.821 12.6487C386.165 11.1602 387.089 7.69338 389.975 4.73917C393.795 0.829526 399.011 -0.235216 403.631 0.842395C408.007 1.86313 411.467 4.6807 413.309 6.283C415.603 8.27946 417.941 10.7398 420.175 13.2882C424.672 18.4175 429.605 24.8948 434.18 31.1939C438.79 37.5419 443.21 43.95 446.682 49.021C447.298 49.9204 447.879 50.7703 448.425 51.5691C449.437 53.0493 450.329 54.3537 451.099 55.4711C451.688 56.3246 452.174 57.0224 452.559 57.5662C452.658 57.7044 452.746 57.8278 452.824 57.937C452.9 58.0418 452.967 58.1337 453.025 58.2136C453.084 58.2942 453.13 58.3553 453.163 58.3994C453.198 58.4447 453.211 58.4615 453.206 58.4559C465.872 74.5147 478.743 90.5597 491.648 106.646C518.007 139.504 544.505 172.535 569.667 206.211C573.799 211.741 572.666 219.574 567.135 223.706C561.605 227.838 553.772 226.705 549.64 221.175C524.727 187.833 498.706 155.397 472.51 122.744C459.537 106.574 446.521 90.3507 433.577 73.9373C432.471 72.5355 430.219 69.2388 427.652 65.4816C427.13 64.718 426.596 63.9353 426.055 63.1457C422.609 58.1127 418.35 51.9399 413.952 45.8847C412.335 43.658 410.722 41.4787 409.143 39.4015C409.207 46.9247 409.608 54.7393 410.066 61.1868C415.537 138.195 425.752 217.084 439.063 295.667C444.339 326.811 445.498 331.5 448.008 341.658C449.386 347.23 451.17 354.448 454.263 368.58C454.313 368.808 454.39 369.139 454.485 369.549C454.94 371.511 455.816 375.285 456.171 378.243C456.29 379.236 456.399 380.476 456.382 381.783C456.368 382.838 456.277 385.149 455.268 387.64C454.107 390.504 450.764 395.405 444.066 395.945C439.087 396.346 435.566 393.858 434.486 393.06C422.179 383.963 410.834 368.367 401.417 354.154C397.343 348.006 393.643 342.149 390.224 336.738C385.126 328.67 380.655 321.594 376.508 316.023C343.996 272.355 310.008 229.48 272.749 189.198C265.995 181.896 257.081 172.79 248.784 164.824C249.218 170.072 249.873 175.881 250.653 181.861C251.963 191.919 253.574 202.077 254.909 210.231C255.188 211.932 255.464 213.599 255.728 215.187C256.645 220.719 257.405 225.309 257.57 227.139C261.659 272.608 266.946 318.132 272.256 363.854C275.035 387.786 277.821 411.772 280.445 435.833C280.999 440.918 286.458 494.519 290.915 546.521C293.143 572.506 295.133 598.235 296.132 617.347C296.629 626.849 296.896 634.99 296.795 640.779C296.747 643.55 296.61 646.39 296.217 648.713C296.061 649.635 295.667 651.816 294.497 654.001C293.922 655.075 292.488 657.447 289.587 659.166C285.987 661.301 281.79 661.456 278.246 660.031C264.094 654.34 255.879 642.087 250.185 631.46C247.843 627.089 245.66 622.453 243.655 618.194C243.182 617.189 242.719 616.205 242.266 615.251C239.791 610.035 237.533 605.508 235.096 601.646C217.425 573.643 209.746 560.884 203.208 550.022C194.468 535.502 187.768 524.372 161.971 484.746C153.307 471.437 144.539 457.462 135.599 443.215C105.493 395.232 73.4475 344.159 36.9111 305.024C34.8734 302.842 33.3395 301.56 32.2951 300.814C31.3001 302.71 30.1243 305.88 29.0451 310.689C27.7285 316.557 26.769 323.859 26.1451 332.242ZM234.646 150.788C234.648 150.789 234.649 150.79 234.651 150.791C234.634 150.778 234.632 150.776 234.646 150.788ZM396.002 24.4367C396.002 24.4354 396.029 24.4513 396.083 24.489C396.029 24.4571 396.002 24.4381 396.002 24.4367ZM449.22 372.862C449.262 372.893 449.304 372.924 449.346 372.955L449.332 372.945C449.312 372.93 449.274 372.901 449.22 372.862ZM271.568 644.544C271.544 644.682 271.541 644.647 271.577 644.484C271.574 644.506 271.571 644.526 271.568 644.544Z" fill="#89FCFB"/>
</svg>
