<svg width="269" height="322" viewBox="0 0 269 322" fill="none" xmlns="http://www.w3.org/2000/svg">
<path d="M27.8972 78.4514C47.1994 74.7743 66.4134 70.6087 85.804 67.4202C100.058 65.0764 137.537 57.072 129.142 68.7796C122.779 77.652 77.4714 101.864 74.0908 103.764C63.9691 109.453 40.5802 122.526 27.5435 128.742C26.6585 129.164 23.8678 130.033 24.7067 129.526C32.903 124.576 49.5644 117.688 56.6151 114.904C75.9603 107.264 100.601 98.6045 120.38 92.4265C122.003 91.9195 153.029 82.426 160.284 82.3C161.159 82.2848 161.092 84.3381 160.436 84.9151C155.018 89.6808 130.274 102.24 127.778 103.546C109.353 113.18 53.2089 140.312 71.3913 130.233C80.7211 125.061 99.1315 117.955 106.635 115.112C130.034 106.247 150.357 99.3493 174.375 92.2323C182.963 89.6876 191.557 87.0929 200.321 85.2349C203.33 84.597 207.767 82.267 209.542 84.7773C211.057 86.9188 205.979 88.7025 203.76 90.0957C196.919 94.389 189.675 98.0133 182.51 101.745C149.633 118.866 115.981 134.491 82.0353 149.383C79.6579 150.426 72.4376 153.346 74.8063 152.284C81.8032 149.146 88.846 146.107 95.9239 143.154C123.348 131.712 160.899 116.443 188.512 106.045C199.546 101.89 210.609 97.7841 221.854 94.2311C227.699 92.3841 244.395 86.4947 231.299 96.4124C220.659 104.47 198.799 116.301 188.525 121.827C173.98 129.65 157.715 138.038 142.371 144.688C139.646 145.869 136.893 148.365 133.99 147.716C131.564 147.173 138.314 145.256 140.603 144.293C147.053 141.578 153.581 139.039 160.176 136.697C176.184 131.011 202.196 122.661 218.693 118.297C226.036 116.354 246.345 110.17 241.361 115.88C238.125 119.587 233.207 121.439 228.86 123.757C220.717 128.1 212.377 132.081 203.943 135.833C187.906 142.969 160.886 153.842 143.595 159.22C139.299 160.556 134.815 162.824 130.385 162.008C128.349 161.633 132.923 158.606 134.72 157.585C147.541 150.293 173.297 140.16 185.834 135.519C195.628 131.893 205.543 128.592 215.485 125.386C222.655 123.073 229.811 120.644 237.158 118.967C239.324 118.473 244.159 116.725 243.827 118.916C243.327 122.222 238.952 123.545 236.181 125.424C229.158 130.184 221.822 134.473 214.514 138.787C192.686 151.671 177.756 159.881 154.814 170.989C145.747 175.379 136.567 179.546 127.297 183.495C120.915 186.214 114.429 188.697 107.878 190.985C104.432 192.189 100.99 193.871 97.338 193.959C89.9611 194.135 110.044 186.39 116.878 183.63C135.155 176.247 161.345 167.085 180.025 161.813C189.091 159.254 198.246 156.908 207.537 155.341C212.542 154.496 218.027 152.739 222.752 154.605C224.707 155.377 222.329 159.151 220.79 160.574C212.161 168.551 188.57 179.599 179.916 183.746C173.217 186.957 154.859 195.411 145.361 198.704C122.757 206.54 189.933 181.241 212.711 173.918C220.491 171.417 228.253 168.847 236.13 166.665C240.137 165.555 244.169 164.046 248.331 164.051C253.08 164.056 242.595 171.784 238.723 174.516C224.938 184.243 210.324 192.044 195.593 200.167C195.005 200.491 193.324 201.554 193.967 201.357C197.816 200.177 201.527 198.588 205.302 197.19C219.626 191.889 240.026 184.143 254.349 179.401C260.138 177.485 265.93 175.494 271.892 174.201C283.273 171.733 274.446 177.506 270.761 180.054C261.702 186.316 248.784 193.248 239.242 198.238C234.374 200.783 229.406 203.132 224.498 205.6C222.801 206.453 217.566 207.813 219.429 208.199C221.803 208.692 224.045 206.731 226.349 205.984C240.697 201.332 250.237 197.987 265.043 194.032C265.407 193.935 284.528 188.645 289.041 189.774C291.986 190.51 285.752 195.074 283.222 196.736C268.226 206.591 219.555 229.928 235.642 221.959" stroke="#424242" stroke-linecap="round"/>
<path d="M159.217 157.113L160.321 158.68C160.682 159.193 161.42 159.25 161.857 158.8L163.375 157.233C163.989 156.598 163.54 155.537 162.656 155.537H160.035C159.224 155.537 158.75 156.45 159.217 157.113Z" fill="black"/>
<path d="M172.425 134.444L176.485 140.483C176.596 140.648 176.655 140.842 176.655 141.041V163.414C176.655 163.661 176.564 163.899 176.399 164.083L164.788 177.011C164.493 177.34 164.448 177.824 164.68 178.202L182.995 208.054C183.404 208.72 182.924 209.576 182.142 209.576H174.978C174.66 209.576 174.362 209.426 174.173 209.17L159.033 188.665C158.32 187.699 156.821 188.58 157.318 189.673L166.193 209.195C166.494 209.857 166.01 210.609 165.283 210.609H160.054C159.744 210.609 159.451 210.465 159.261 210.218L139.513 184.52C139.314 184.26 139 184.115 138.673 184.13L96.4724 186.144C96.1261 186.161 95.813 186.355 95.6451 186.659L80.1982 214.568C80.022 214.886 79.687 215.084 79.3232 215.084H72.9138C72.2374 215.084 71.7562 214.426 71.9605 213.782L78.0017 194.724C78.37 193.562 76.7337 192.876 76.1642 193.954L65.2434 214.625C65.0916 214.913 64.8095 215.108 64.4872 215.15L58.5942 215.911C57.8595 216.005 57.2803 215.296 57.5199 214.595L68.9346 181.205C68.979 181.075 68.9962 180.937 68.985 180.8L65.0848 132.815C65.0391 132.252 65.4675 131.763 66.0311 131.735L118.505 129.086C119.076 129.057 119.555 129.513 119.555 130.085V135.321C119.555 135.849 119.144 136.287 118.616 136.319L75.3964 138.958C74.8687 138.99 74.4573 139.427 74.4573 139.956V148.61C74.4573 149.191 74.9506 149.649 75.5299 149.607L144.833 144.562C145.172 144.537 145.476 144.342 145.639 144.043L150.772 134.612C151.131 133.952 152.062 133.909 152.48 134.532L156.355 140.294C156.541 140.57 156.852 140.736 157.185 140.736H166.281C166.626 140.736 166.947 140.558 167.129 140.266L170.746 134.472C171.13 133.858 172.02 133.843 172.425 134.444Z" fill="#DD8D13"/>
<path d="M163.932 156.505L161.963 158.758C161.551 159.23 160.811 159.211 160.424 158.718L158.652 156.465C158.136 155.809 158.604 154.847 159.438 154.847L163.179 154.847C164.038 154.847 164.497 155.859 163.932 156.505Z" fill="black"/>
<path d="M163.932 162.139L161.963 159.887C161.551 159.415 160.811 159.434 160.424 159.926L158.652 162.179C158.136 162.835 158.604 163.797 159.438 163.797L163.179 163.797C164.038 163.797 164.497 162.786 163.932 162.139Z" fill="black"/>
<rect x="158.107" y="150.029" width="6.54649" height="6.19564" rx="1" fill="#0B883A"/>
<ellipse cx="155.197" cy="148.652" rx="2.90955" ry="2.75362" fill="black"/>
<ellipse cx="167.563" cy="148.652" rx="2.90955" ry="2.75362" fill="black"/>
<ellipse cx="143.559" cy="158.289" rx="4.36433" ry="4.13042" fill="#EC141E"/>
<ellipse cx="143.559" cy="169.305" rx="4.36433" ry="4.13042" fill="#EC141E"/>
<ellipse cx="139.922" cy="179.63" rx="4.36433" ry="4.13042" fill="#EC141E"/>
<ellipse cx="129.738" cy="166.55" rx="4.36433" ry="4.13042" fill="#EC141E"/>
<ellipse cx="125.374" cy="152.095" rx="4.36433" ry="4.13042" fill="#EC141E"/>
<ellipse cx="137.74" cy="152.095" rx="4.36433" ry="4.13042" fill="#EC141E"/>
<ellipse cx="124.648" cy="176.188" rx="4.36433" ry="4.13042" fill="#EC141E"/>
<ellipse cx="113.008" cy="167.24" rx="4.36433" ry="4.13042" fill="#EC141E"/>
<ellipse cx="114.464" cy="157.602" rx="4.36433" ry="4.13042" fill="#EC141E"/>
<ellipse cx="104.28" cy="151.405" rx="4.36433" ry="4.13042" fill="#EC141E"/>
<ellipse cx="95.5518" cy="156.913" rx="4.36433" ry="4.13042" fill="#EC141E"/>
<ellipse cx="99.1885" cy="167.928" rx="4.36433" ry="4.13042" fill="#EC141E"/>
<ellipse cx="111.554" cy="177.565" rx="4.36433" ry="4.13042" fill="#EC141E"/>
<ellipse cx="91.9141" cy="179.63" rx="4.36433" ry="4.13042" fill="#EC141E"/>
<ellipse cx="86.8223" cy="169.305" rx="4.36433" ry="4.13042" fill="#EC141E"/>
<ellipse cx="76.6397" cy="177.565" rx="4.36433" ry="4.13042" fill="#EC141E"/>
<ellipse cx="81.003" cy="159.668" rx="4.36433" ry="4.13042" fill="#EC141E"/>
<ellipse cx="72.2755" cy="154.16" rx="4.36433" ry="4.13042" fill="#EC141E"/>
<ellipse cx="69.3653" cy="140.391" rx="4.36433" ry="4.13042" fill="#EC141E"/>
<ellipse cx="78.0948" cy="134.197" rx="4.36433" ry="4.13042" fill="#EC141E"/>
<ellipse cx="89.0045" cy="134.884" rx="4.36433" ry="4.13042" fill="#EC141E"/>
<ellipse cx="105.734" cy="132.13" rx="4.36433" ry="4.13042" fill="#EC141E"/>
<ellipse cx="115.918" cy="132.819" rx="4.36433" ry="4.13042" fill="#EC141E"/>
<path d="M212.01 57.6416L244.63 61.3477L236.391 90.3078L208.667 75.478L183.851 70.8263L173.044 85.6581L225.997 120.068L149.343 96.4676L141.684 77.3716L149.051 59.4866L129.517 50.2059L127.239 40.9487L129.177 34.8901L134.945 31.9575L154.865 34.8888L160.996 17.1734L186.708 12.7615L253.983 41.4269L190.611 34.7658L191.096 49.3061L212.01 57.6416Z" fill="#118199"/>
<path d="M210.896 61.4472L236.996 63.53L235.688 70.5095L217.488 69.1048L235.47 78.0947L233.071 84.4684L208.715 73.0796L210.896 61.4472Z" fill="#FEE004"/>
<path d="M117.787 33.5574L129.177 34.8896L127.239 40.9482L117.787 33.5574Z" fill="#FEB700"/>
<path d="M149.051 59.4866L153.437 51.0771L129.905 50.2786L149.051 59.4866Z" fill="#ED020B"/>
<circle r="2.76151" transform="matrix(-0.982882 -0.184238 -0.184238 0.982882 136.957 38.3558)" fill="black"/>
<path d="M130 321.004H136.319L158.995 279.743L171.633 288.292L162.34 321.004H174.607L181.298 296.099L184.644 321.004H195.795L191.706 294.24H213.638L199.884 321.004H211.78L224.79 296.099L220.701 321.004H231.109L237.429 281.229L243.748 306.879H247.465L237.429 247.031L225.905 236.994H156.764L140.037 260.413L130 321.004Z" fill="#B7B7B7"/>
<path d="M162.341 277.512L158.624 268.591L139.666 280.486L162.341 277.512Z" fill="#E7051B"/>
<path fill-rule="evenodd" clip-rule="evenodd" d="M171.259 240.337C171.26 240.337 171.26 240.337 171.26 240.337C182.756 240.337 192.076 249.657 192.076 261.154C192.076 272.65 182.756 281.97 171.26 281.97C171.26 281.97 171.26 281.97 171.259 281.97V240.337Z" fill="#488A05"/>
<circle r="2.97381" transform="matrix(-1 0 0 1 160.111 253.72)" fill="black"/>
</svg>
