<svg width="244" height="215" viewBox="0 0 244 215" fill="none" xmlns="http://www.w3.org/2000/svg">
<path d="M25.5919 54.9492C43.2993 51.5759 60.9257 47.7545 78.7141 44.8295C91.7903 42.6793 126.173 35.3363 118.471 46.0766C112.634 54.2159 71.07 76.4276 67.9687 78.1706C58.6834 83.3894 37.227 95.3824 25.2674 101.085C24.4556 101.472 21.8954 102.269 22.665 101.804C30.1841 97.263 45.4689 90.9442 51.937 88.3899C69.6838 81.3814 92.2889 73.4372 110.433 67.7696C111.922 67.3045 140.384 58.5954 147.04 58.4799C147.843 58.4659 147.782 60.3495 147.18 60.8788C142.21 65.2508 119.51 76.7723 117.22 77.97C100.318 86.8079 48.8122 111.699 65.4923 102.452C74.0512 97.7078 90.9404 91.1885 97.8236 88.5808C119.29 80.4484 137.934 74.1204 159.967 67.5915C167.845 65.2571 175.729 62.8767 183.769 61.1722C186.53 60.5871 190.599 58.4495 192.228 60.7525C193.618 62.717 188.96 64.3533 186.923 65.6314C180.648 69.57 174.003 72.8948 167.429 76.3179C137.27 92.0241 106.398 106.358 75.2568 120.02C73.0758 120.977 66.4521 123.655 68.6251 122.681C75.0439 119.802 81.5048 117.015 87.9978 114.306C113.156 103.809 147.605 89.8019 172.935 80.2631C183.058 76.4513 193.207 72.6845 203.523 69.4251C208.885 67.7307 224.201 62.328 212.187 71.4262C202.426 78.8182 182.373 89.6717 172.948 94.7411C159.604 101.918 144.683 109.612 130.607 115.713C128.107 116.797 125.582 119.086 122.919 118.491C120.693 117.992 126.886 116.234 128.985 115.35C134.902 112.86 140.891 110.531 146.942 108.382C161.626 103.166 185.49 95.5063 200.623 91.5024C207.359 89.7204 225.99 84.0474 221.418 89.2852C218.45 92.6858 213.938 94.3851 209.95 96.5117C202.48 100.495 194.829 104.147 187.092 107.59C172.38 114.136 147.592 124.11 131.73 129.044C127.789 130.27 123.676 132.351 119.612 131.602C117.744 131.258 121.94 128.481 123.588 127.544C135.35 120.855 158.978 111.559 170.479 107.302C179.464 103.975 188.56 100.947 197.68 98.0055C204.258 95.8841 210.822 93.6558 217.562 92.1172C219.55 91.6636 223.985 90.0605 223.681 92.0703C223.222 95.1034 219.208 96.3168 216.666 98.0403C210.224 102.407 203.494 106.342 196.79 110.299C176.765 122.119 163.069 129.65 142.022 139.841C133.704 143.868 125.283 147.691 116.779 151.314C110.924 153.808 104.974 156.086 98.9642 158.185C95.8033 159.289 92.6456 160.832 89.2951 160.913C82.5277 161.075 100.951 153.969 107.221 151.437C123.987 144.664 148.013 136.259 165.15 131.423C173.467 129.076 181.865 126.923 190.389 125.485C194.981 124.711 200.012 123.099 204.346 124.811C206.14 125.519 203.958 128.981 202.546 130.286C194.631 137.605 172.989 147.739 165.05 151.544C158.904 154.49 142.064 162.245 133.35 165.266C112.614 172.455 174.24 149.245 195.135 142.528C202.272 140.234 209.393 137.875 216.619 135.874C220.295 134.855 223.994 133.472 227.812 133.476C232.168 133.481 222.55 140.57 218.998 143.077C206.352 151.999 192.945 159.156 179.432 166.608C178.892 166.905 177.35 167.88 177.94 167.699C181.471 166.617 184.876 165.159 188.339 163.877C201.479 159.014 220.194 151.908 233.333 147.558C238.644 145.8 243.957 143.973 249.426 142.787C259.867 140.523 251.769 145.82 248.389 148.156C240.078 153.901 228.228 160.261 219.474 164.838C215.008 167.173 210.451 169.328 205.948 171.592C204.392 172.375 199.589 173.622 201.298 173.977C203.476 174.429 205.533 172.63 207.646 171.944C220.809 167.677 229.56 164.608 243.144 160.98C243.477 160.891 261.019 156.038 265.159 157.073C267.86 157.749 262.142 161.935 259.82 163.461C246.063 172.501 201.414 193.91 216.172 186.6" stroke="#424242" stroke-linecap="round"/>
<path d="M178.618 52.5302L208.862 55.9665L201.224 82.8182L175.518 69.068L152.508 64.755L142.488 78.507L191.586 110.411L120.513 88.5296L113.411 70.8238L120.241 54.2408L102.13 45.6359L100.018 37.0526L101.815 31.435L107.163 28.7159L125.633 31.4338L131.317 15.0082L155.157 10.9175L217.534 37.496L158.776 31.3198L159.226 44.8016L178.618 52.5302Z" fill="#118199"/>
<path d="M177.584 56.059L201.784 57.9902L200.571 64.4615L183.696 63.1592L200.369 71.4946L198.145 77.4042L175.563 66.8446L177.584 56.059Z" fill="#FEE004"/>
<path d="M91.2541 30.1993L101.815 31.4346L100.018 37.0521L91.2541 30.1993Z" fill="#FEB700"/>
<path d="M120.241 54.2406L124.308 46.4434L102.49 45.703L120.241 54.2406Z" fill="#ED020B"/>
<circle r="2.56046" transform="matrix(-0.982882 -0.184238 -0.184238 0.982882 109.028 34.6484)" fill="black"/>
</svg>
