<svg width="0" height="0" class="hidden">
  <symbol fill="none" xmlns="http://www.w3.org/2000/svg" viewBox="0 0 25 15" id="arrow-left">
    <path fill-rule="evenodd" clip-rule="evenodd" d="M8.47915 13.1017L7.04446 14.4951L2.48767e-05 7.24214L7.25392 -0.000180657L8.66701 1.41516L3.63939 6.43476L24.3502 6.43476L24.3502 8.07112L3.59323 8.07112L8.47915 13.1017Z" fill="black"></path>
  </symbol>
  <symbol fill="none" xmlns="http://www.w3.org/2000/svg" viewBox="0 0 25 15" id="arrow-right">
    <path fill-rule="evenodd" clip-rule="evenodd" d="M15.8711 1.39344L17.3058 0L24.3502 7.25298L17.0963 14.4953L15.6832 13.08L20.7108 8.06036H0V6.424H20.757L15.8711 1.39344Z" fill="black"></path>
  </symbol>
  <symbol fill="none" xmlns="http://www.w3.org/2000/svg" viewBox="0 0 17 18" id="icon-dif-btn">
    <path fill-rule="evenodd" clip-rule="evenodd" d="M0 0H17V17.7071L8.5 9.20711L0 17.7071V0ZM1 1V15.2929L8.5 7.79289L16 15.2929V1H1Z" fill="black"></path>
  </symbol>
  <symbol fill="none" xmlns="http://www.w3.org/2000/svg" viewBox="0 0 16 16" id="icon-dif">
    <path d="M0 16V0H16V16L8 8L0 16Z" fill="#FF003D"></path>
  </symbol>
  <symbol fill="none" xmlns="http://www.w3.org/2000/svg" viewBox="0 0 11 11" id="icon-loss">
    <path d="M3.5121 7.32112C2.9264 7.32112 2.36291 7.32149 1.79941 7.32112C1.49081 7.32112 1.18185 7.32701 0.873256 7.31744C0.467281 7.30455 0.0953161 6.98464 0.0229994 6.60067C-0.0564773 6.17694 0.14293 5.76462 0.518833 5.58276C0.58578 5.55036 0.657739 5.52975 0.748313 5.49551C0.270738 5.34531 -0.00277781 5.03717 0.00438214 4.53245C0.0104681 4.11056 0.278255 3.82341 0.774805 3.65812C0.542461 3.6121 0.355584 3.50976 0.212383 3.33232C0.0695394 3.15561 -0.00456772 2.95129 0.000444275 2.72231C0.00975226 2.29747 0.299018 1.95584 0.751892 1.8373C0.722178 1.82183 0.70213 1.80711 0.679934 1.80048C0.241022 1.66722 -0.048602 1.24422 0.00760439 0.816442C0.0713288 0.331601 0.435417 0.00248332 0.921227 0.00174702C2.48713 -0.00046188 4.05339 -0.000829721 5.6193 0.00211534C6.00344 0.00285161 6.38972 -0.00193477 6.77171 0.0337749C7.19344 0.0731659 7.57256 0.253187 7.9098 0.517144C7.94811 0.546963 7.97782 0.615069 7.97818 0.665504C7.98176 2.62107 7.98212 4.57663 7.97675 6.53182C7.97675 6.59036 7.92663 6.6662 7.87794 6.70411C7.11933 7.28835 6.45488 7.96352 5.95081 8.79552C5.66978 9.25938 5.47682 9.76005 5.33612 10.2869C5.15497 10.9631 4.3799 11.2197 3.85148 10.7872C3.61986 10.5976 3.5121 10.3432 3.5121 10.0395C3.5121 9.18833 3.5121 8.33719 3.5121 7.48568C3.5121 7.43635 3.5121 7.38665 3.5121 7.32112Z" fill="black"></path>
    <path d="M8.6941 3.65832C8.6941 2.67833 8.69374 1.69834 8.6941 0.718351C8.6941 0.331068 8.88742 0.130799 9.26261 0.130062C9.65641 0.128958 10.0502 0.12859 10.4437 0.130431C10.7992 0.131903 10.9993 0.338431 10.9993 0.705835C11 2.67502 11 4.6442 10.9996 6.61339C10.9996 6.98705 10.7977 7.19652 10.4361 7.19763C10.0423 7.1991 9.64854 7.1991 9.25509 7.19763C8.89351 7.19615 8.69446 6.98779 8.69446 6.61228C8.69375 5.62751 8.6941 4.6431 8.6941 3.65832Z" fill="black"></path>
  </symbol>
  <symbol fill="none" xmlns="http://www.w3.org/2000/svg" viewBox="0 0 11 11" id="icon-vic">
    <path d="M7.48778 3.67888C8.07348 3.67888 8.63697 3.67851 9.20047 3.67888C9.50907 3.67888 9.81802 3.67299 10.1266 3.68256C10.5326 3.69545 10.9046 4.01536 10.9769 4.39933C11.0564 4.82306 10.8569 5.23538 10.481 5.41724C10.4141 5.44964 10.3421 5.47025 10.2516 5.50449C10.7291 5.65469 11.0027 5.96283 10.9955 6.46755C10.9894 6.88944 10.7216 7.17658 10.2251 7.34188C10.4574 7.3879 10.6443 7.49024 10.7875 7.66768C10.9303 7.84439 11.0044 8.04871 10.9994 8.27769C10.9901 8.70253 10.7009 9.04416 10.248 9.1627C10.2777 9.17817 10.2977 9.19289 10.3199 9.19952C10.7589 9.33278 11.0485 9.75578 10.9923 10.1836C10.9285 10.6684 10.5645 10.9975 10.0786 10.9983C8.51274 11.0005 6.94648 11.0008 5.38058 10.9979C4.99644 10.9971 4.61015 11.0019 4.22817 10.9662C3.80644 10.9268 3.42731 10.7468 3.09007 10.4829C3.05177 10.453 3.02205 10.3849 3.0217 10.3345C3.01812 8.37893 3.01776 6.42337 3.02313 4.46817C3.02313 4.40964 3.07325 4.3338 3.12194 4.29589C3.88054 3.71165 4.545 3.03648 5.04907 2.20448C5.3301 1.74062 5.52306 1.23995 5.66376 0.713141C5.84491 0.0368667 6.61998 -0.219727 7.1484 0.212838C7.38002 0.40243 7.48778 0.656815 7.48778 0.960531C7.48778 1.81167 7.48778 2.66281 7.48778 3.51432C7.48778 3.56365 7.48778 3.61335 7.48778 3.67888Z" fill="black"></path>
    <path d="M2.30577 7.34168C2.30577 8.32167 2.30613 9.30166 2.30577 10.2816C2.30577 10.6689 2.11245 10.8692 1.73727 10.8699C1.34346 10.871 0.949659 10.8714 0.556214 10.8696C0.200717 10.8681 0.000593159 10.6616 0.000593159 10.2942C-0.000122847 8.32498 -0.000122847 6.3558 0.000235156 4.38661C0.000235156 4.01295 0.202149 3.80348 0.563732 3.80237C0.957535 3.8009 1.35134 3.8009 1.74478 3.80237C2.10637 3.80385 2.30542 4.01221 2.30542 4.38772C2.30613 5.37249 2.30577 6.3569 2.30577 7.34168Z" fill="black"></path>
  </symbol>
</svg>