<svg width="0" height="0" class="hidden">
  <symbol fill="none" xmlns="http://www.w3.org/2000/svg" viewBox="0 0 30 35" id="bookmark">
    <path fill-rule="evenodd" clip-rule="evenodd" d="M3.5 3.5V30.574L13.3043 21.5239C14.262 20.6399 15.738 20.6399 16.6957 21.5239L26.5 30.574V3.5H3.5ZM0.5 3C0.5 1.61929 1.61929 0.5 3 0.5H27C28.3807 0.5 29.5 1.61929 29.5 3V31.716C29.5 33.8954 26.9057 35.0313 25.3043 33.553L15 24.0414L4.6957 33.553C3.09428 35.0313 0.5 33.8954 0.5 31.716V3Z" fill="black"></path>
  </symbol>
  <symbol fill="none" xmlns="http://www.w3.org/2000/svg" viewBox="0 0 692 684" id="set">
    <path fill-rule="evenodd" clip-rule="evenodd" d="M298.805 162.893C292.01 167.631 290.342 176.981 295.081 183.777C318.571 217.463 336.833 254.011 355.636 292.387C390.442 363.424 425.356 434.791 453.154 508.049C456.093 515.795 464.755 519.691 472.5 516.752C480.245 513.813 484.142 505.151 481.203 497.406C452.828 422.628 417.281 350.02 382.576 279.188C363.85 240.969 344.674 202.447 319.689 166.617C314.95 159.822 305.6 158.154 298.805 162.893Z" fill="#89FCFB"></path>
    <path fill-rule="evenodd" clip-rule="evenodd" d="M204.702 179.652C197.132 183.018 193.725 191.883 197.091 199.453C213.477 236.3 229.783 273.254 246.1 310.232C285.99 400.635 325.943 491.181 367.288 580.66C370.763 588.18 379.677 591.459 387.197 587.984C394.717 584.51 397.996 575.596 394.522 568.076C353.291 478.846 313.504 388.676 273.658 298.372C257.317 261.34 240.967 224.284 224.503 187.263C221.137 179.693 212.272 176.286 204.702 179.652Z" fill="#89FCFB"></path>
    <path fill-rule="evenodd" clip-rule="evenodd" d="M522.625 357.968C519.25 350.403 510.38 347.006 502.815 350.382C412.478 390.69 322.674 433.285 237.049 483.537C229.904 487.73 227.512 496.922 231.705 504.066C235.898 511.211 245.089 513.604 252.234 509.411C336.424 460 425.04 417.936 515.039 377.778C522.604 374.403 526.001 365.533 522.625 357.968Z" fill="#89FCFB"></path>
    <path fill-rule="evenodd" clip-rule="evenodd" d="M483.807 206.509C479.471 199.449 470.234 197.241 463.175 201.577C391.472 245.613 323.54 293.128 255.28 340.873C248.653 345.508 242.023 350.146 235.386 354.782C228.595 359.526 226.936 368.878 231.68 375.669C236.424 382.46 245.776 384.119 252.567 379.375C259.188 374.749 265.794 370.129 272.389 365.516C340.771 317.688 407.976 270.683 478.875 227.141C485.934 222.805 488.142 213.568 483.807 206.509Z" fill="#89FCFB"></path>
    <path fill-rule="evenodd" clip-rule="evenodd" d="M518.499 411.727C503.845 407.805 487.134 408.072 472.952 414.378C459.819 420.217 449.791 431.599 450.113 446.226C450.432 460.734 460.804 471.736 473.979 477.234C489.628 483.765 507.179 482.819 520.784 474.334C526.989 470.465 532.068 465.209 535.636 458.884C540.321 461.837 546.469 462.072 551.505 458.974C558.561 454.634 560.763 445.395 556.422 438.339C547.8 424.32 533.137 415.644 518.499 411.727ZM510.868 440.74C509.842 444.683 507.529 447.245 504.91 448.878C500.328 451.736 493.102 452.707 485.532 449.548C482.619 448.332 481.178 447.02 480.563 446.259C480.299 445.931 480.179 445.705 480.129 445.58C480.172 445.478 480.264 445.302 480.453 445.051C480.972 444.362 482.291 443.057 485.14 441.79C491.888 438.79 501.38 438.201 510.745 440.707C510.786 440.718 510.827 440.729 510.868 440.74ZM480.094 445.691C480.095 445.691 480.099 445.677 480.102 445.651C480.094 445.678 480.093 445.691 480.094 445.691ZM480.102 445.505C480.099 445.48 480.095 445.468 480.094 445.468C480.093 445.468 480.094 445.48 480.102 445.505Z" fill="#D7E977"></path>
    <path fill-rule="evenodd" clip-rule="evenodd" d="M340.838 131.608C334.395 136.814 333.392 146.259 338.599 152.702C358.524 177.361 377.902 202.372 397.332 227.623C402.384 234.189 411.802 235.416 418.367 230.364C424.933 225.313 426.16 215.895 421.108 209.329C401.657 184.049 382.096 158.8 361.933 133.847C356.726 127.404 347.282 126.401 340.838 131.608Z" fill="#7FDEA6"></path>
    <path fill-rule="evenodd" clip-rule="evenodd" d="M450.983 147.638C446.643 140.582 437.404 138.38 430.348 142.72C418.164 150.215 405.097 156.583 391.26 163.213C390.376 163.636 389.489 164.061 388.599 164.487C375.848 170.59 362.454 177 349.616 184.474C349.508 184.516 349.367 184.568 349.102 184.665L349.042 184.687C348.79 184.78 348.388 184.928 347.978 185.088C346.107 185.818 342.262 187.451 338.994 191.349C333.672 197.698 334.505 207.159 340.854 212.481C346.449 217.171 354.462 217.081 359.928 212.648C360.142 212.568 360.386 212.475 360.639 212.375C361.615 211.991 362.985 211.406 364.493 210.526C376.302 203.636 388.739 197.681 401.821 191.418C402.619 191.036 403.42 190.653 404.223 190.268C417.968 183.682 432.369 176.698 446.066 168.273C453.122 163.933 455.324 154.694 450.983 147.638ZM358.834 213.055C358.835 213.055 358.845 213.051 358.864 213.043C358.844 213.051 358.834 213.055 358.834 213.055Z" fill="#7FDEA6"></path>
  </symbol>
  <symbol xmlns="http://www.w3.org/2000/svg" viewBox="0 0 25 15" id="arrow">
    <path d="M21.8531 6.72754H8.58307e-05V8.3639H21.8531V6.72754Z"></path>
    <path fill-rule="evenodd" clip-rule="evenodd" d="M17.3058 0.303711L15.8712 1.69715L21.5412 7.53508L15.6833 13.3837L17.0964 14.799L24.3503 7.55669L17.3058 0.303711Z"></path>
  </symbol>
  <symbol fill="none" xmlns="http://www.w3.org/2000/svg" viewBox="0 0 112 112" id="star4">
    <path d="M0.323403 46.9726L45.2676 41.6595L65.0082 0.934629L70.3213 45.8788L111.046 65.6194L66.102 70.9325L46.3614 111.657L41.0483 66.7132L0.323403 46.9726Z" fill="black"></path>
  </symbol>
  <symbol fill="none" xmlns="http://www.w3.org/2000/svg" viewBox="0 0 178 163" id="star6">
    <path fill-rule="evenodd" clip-rule="evenodd" d="M86.3192 57.3434L40.0921 13.344L66.5547 71.4182L5.3366 89.4524L68.8617 95.5722L53.8707 157.606L90.9332 105.651L137.16 149.651L110.698 91.5764L171.916 73.5423L108.391 67.4225L123.382 5.38891L86.3192 57.3434ZM125.567 0.603812L109.633 66.5375L177.152 73.0421L112.085 92.2101L140.212 153.936L91.0782 107.17L51.6855 162.391L67.6191 96.4571L0.10001 89.9526L65.1671 70.7845L37.0407 9.05903L86.1742 55.8247L125.567 0.603812Z" fill="black"></path>
  </symbol>
  <symbol fill="none" xmlns="http://www.w3.org/2000/svg" viewBox="0 0 305 305" id="star8">
    <path d="M278.49 63.4579L208.355 139.908L304.672 178.462L201.021 182.927L241.865 278.296L165.415 208.161L126.86 304.478L122.395 200.827L27.0263 241.671L97.1616 165.222L0.844285 126.667L104.496 122.202L63.6513 26.8329L140.101 96.9682L178.656 0.650848L183.121 104.302L278.49 63.4579Z" fill="#7FDEA6"></path>
  </symbol>
</svg>