<svg width="111" height="85" viewBox="0 0 111 85" fill="none" xmlns="http://www.w3.org/2000/svg">
<path d="M110.13 47.3043L103.478 45.4565L97.5648 64.3044L81.6735 66.8913L91.2822 57.2826V24.3913L66.8909 0H32.8909L9.60827 24.3913V58.7609L29.9344 78.7174L0.369141 85H105.695V64.3044L110.13 47.3043Z" fill="#B88A0B"/>
<rect x="69.834" y="42.5" width="23.4994" height="23.4994" transform="rotate(45 69.834 42.5)" fill="#EE7CAD"/>
<rect x="11.0859" y="30.4346" width="23.4994" height="23.4994" transform="rotate(-10.2847 11.0859 30.4346)" fill="#019542"/>
<rect x="35.125" y="1.84766" width="23.4994" height="23.4994" transform="rotate(27.1787 35.125 1.84766)" fill="#FFDF38"/>
<rect x="33.2598" y="49.1523" width="23.4994" height="23.4994" fill="#E40614"/>
<rect x="63.2598" y="8.5" width="16.3536" height="16.3536" transform="rotate(52.6434 63.2598 8.5)" fill="#EF7EB1"/>
<rect x="55.834" y="25.5" width="14.0625" height="14.0625" transform="rotate(10.7249 55.834 25.5)" fill="#01933B"/>
<rect x="41.6914" y="31.8809" width="14.7826" height="14.7826" transform="rotate(-3.51963 41.6914 31.8809)" fill="#1D4FA3"/>
</svg>
