<svg width="113" height="75" viewBox="0 0 113 75" fill="none" xmlns="http://www.w3.org/2000/svg">
<path d="M30.3673 36.6514L26.2949 34.6152V39.027L30.3673 36.6514Z" fill="#E30713"/>
<path d="M108.083 28.5068H40.2098L30.7075 33.9367V39.3665L40.2098 45.1357H95.1872V57.3529H17.1329V16.9683H84.3274L108.083 9.84163V6.44796L84.3274 0H6.27314L0.503906 5.76923V65.8371L9.6668 75H106.047L112.495 68.552V32.9186L108.083 28.5068ZM42.3682 1.0181L48.4768 7.1267L54.5854 1.0181L60.694 7.1267L66.8026 1.0181L74.0514 8.26697L66.8026 15.5158L60.694 9.40724L54.5854 15.5158L48.4768 9.40724L42.3682 15.5158L35.1193 8.26697L42.3682 1.0181ZM68.8388 44.0226L63.4089 38.5928L57.979 44.0226L50.7302 36.7738L57.979 29.5249L63.4089 34.9548L68.8388 29.5249L76.0876 36.7738L68.8388 44.0226ZM1.18264 25.2353L8.43151 17.9864L15.6804 25.2353L9.91115 31.0045L15.6804 36.7738L8.43151 44.0226L1.18264 36.7738L6.95187 31.0045L1.18264 25.2353ZM111.382 65.2805L104.133 72.5294L96.884 65.2805L102.993 59.1719L96.884 53.0634L104.133 45.8145L111.382 53.0634L105.273 59.1719L111.382 65.2805Z" fill="#284B8D"/>
<path d="M25.8651 1.01678L18.6133 8.26855L25.8651 15.5203L33.1168 8.26856L25.8651 1.01678Z" fill="#EE7CAF"/>
<path d="M74.0513 8.26742L66.8024 15.5163L60.6938 9.40769L54.5852 15.5163L48.4766 9.40769L42.368 15.5163L35.1191 8.26742L42.368 1.01855L48.4766 7.12715L54.5852 1.01855L60.6938 7.12715L66.8024 1.01855L74.0513 8.26742Z" fill="#EE7CAF"/>
<path d="M85.8104 1.01678L78.5586 8.26855L85.8104 15.5203L93.0621 8.26855L85.8104 1.01678Z" fill="#EE7CAF"/>
<path d="M9.1131 1.0158L1.86133 8.26758L9.1131 15.5194L16.3649 8.26758L9.1131 1.0158Z" fill="#EE7CAF"/>
<path d="M9.9121 31.0044L15.6813 36.7737L8.43246 44.0225L1.18359 36.7737L6.95282 31.0044L1.18359 25.2352L8.43246 17.9863L15.6813 25.2352L9.9121 31.0044Z" fill="#EE7CAF"/>
<path d="M7.75568 47.8478L0.503906 55.0996L7.75568 62.3514L15.0075 55.0996L7.75568 47.8478Z" fill="#EE7CAF"/>
<path d="M17.2576 58.0295L10.0059 65.2812L17.2576 72.533L24.5094 65.2812L17.2576 58.0295Z" fill="#EE7CAF"/>
<path d="M36.9412 58.0295L29.6895 65.2812L36.9412 72.533L44.193 65.2812L36.9412 58.0295Z" fill="#EE7CAF"/>
<path d="M54.5897 58.0295L47.3379 65.2812L54.5897 72.533L61.8414 65.2812L54.5897 58.0295Z" fill="#EE7CAF"/>
<path d="M70.8787 58.0295L63.627 65.2812L70.8787 72.533L78.1305 65.2812L70.8787 58.0295Z" fill="#EE7CAF"/>
<path d="M88.5252 58.0295L81.2734 65.2812L88.5252 72.533L95.777 65.2812L88.5252 58.0295Z" fill="#EE7CAF"/>
<path d="M105.274 59.1719L111.383 65.2805L104.134 72.5294L96.8848 65.2805L102.993 59.1719L96.8848 53.0633L104.134 45.8145L111.383 53.0633L105.274 59.1719Z" fill="#EE7CAF"/>
<path d="M104.814 29.5236L97.5625 36.7754L104.814 44.0272L112.066 36.7754L104.814 29.5236Z" fill="#EE7CAF"/>
<path d="M88.5252 29.5236L81.2734 36.7754L88.5252 44.0272L95.777 36.7754L88.5252 29.5236Z" fill="#EE7CAF"/>
<path d="M76.0879 36.7733L68.8391 44.0222L63.4092 38.5923L57.9793 44.0222L50.7305 36.7733L57.9793 29.5244L63.4092 34.9543L68.8391 29.5244L76.0879 36.7733Z" fill="#EE7CAF"/>
<path fill-rule="evenodd" clip-rule="evenodd" d="M46.5227 32.2393H39.8711C40.1833 30.6918 41.5544 29.5244 43.1969 29.5244C44.8394 29.5244 46.2105 30.6918 46.5227 32.2393Z" fill="#FFDF38"/>
<path fill-rule="evenodd" clip-rule="evenodd" d="M46.5227 41.0635H39.8711C40.1833 42.611 41.5544 43.7784 43.1969 43.7784C44.8394 43.7784 46.2105 42.611 46.5227 41.0635Z" fill="#FFDF38"/>
</svg>
