<svg width="108" height="77" viewBox="0 0 108 77" fill="none" xmlns="http://www.w3.org/2000/svg">
<path d="M107.664 77H101.872L81.0885 39.1814L69.5044 47.0177L78.0221 77H66.7788L60.646 54.1726L57.5796 77H47.3584L51.1062 52.469H31.0044L43.6106 77H32.708L20.7832 54.1726L24.531 77H14.9911L9.19911 40.5442L3.40708 64.0531H0L9.19911 9.19911L19.7611 0H83.1327L98.4646 21.4646L107.664 77Z" fill="#B7B7B7"/>
<path d="M78.0215 37.137L81.4286 28.96L98.8047 39.8626L78.0215 37.137Z" fill="#E7051B"/>
<path fill-rule="evenodd" clip-rule="evenodd" d="M69.8453 3.06641C69.8453 3.06641 69.8453 3.06641 69.8453 3.06641C59.3079 3.06641 50.7656 11.6087 50.7656 22.1461C50.7656 32.6834 59.3079 41.2257 69.8453 41.2257C69.8453 41.2257 69.8453 41.2257 69.8453 41.2257V3.06641Z" fill="#488A05"/>
<circle cx="80.0655" cy="15.3321" r="2.72566" fill="black"/>
</svg>
