<svg width="108" height="79" viewBox="0 0 108 79" fill="none" xmlns="http://www.w3.org/2000/svg">
<path d="M86.8255 26.2422L87.5504 27.3295C87.9103 27.8694 88.6811 27.9288 89.1196 27.4505L90.1163 26.3632C90.7042 25.7218 90.2492 24.6875 89.3791 24.6875H87.6576C86.8589 24.6875 86.3825 25.5776 86.8255 26.2422Z" fill="black"/>
<path d="M98.0823 6.00428L101.371 11.1723C101.473 11.3327 101.527 11.519 101.527 11.7092V31.7262C101.527 31.9635 101.443 32.193 101.289 32.3738L91.4929 43.899C91.2186 44.2217 91.1773 44.6824 91.3901 45.0487L106.827 71.6346C107.214 72.3012 106.733 73.1367 105.962 73.1367H100.197C99.8704 73.1367 99.5643 72.9772 99.3773 72.7095L87.384 55.5467C86.6943 54.5598 85.1698 55.4087 85.6457 56.5147L92.595 72.6673C92.879 73.3273 92.395 74.0625 91.6765 74.0625H87.5327C87.2127 74.0625 86.9121 73.9094 86.7239 73.6507L70.0606 50.7386C69.8619 50.4655 69.5388 50.311 69.2015 50.328L33.59 52.1236C33.2365 52.1414 32.9187 52.3448 32.7545 52.6583L19.7222 77.5382C19.5496 77.8677 19.2083 78.0742 18.8363 78.0742H13.6878C13.0179 78.0742 12.5375 77.4285 12.73 76.7869L17.3465 61.3985C17.698 60.2268 16.0413 59.5698 15.4942 60.6639L7.0252 77.6019C6.87744 77.8975 6.59325 78.1009 6.26589 78.1456L1.57625 78.7851C0.846259 78.8846 0.262907 78.1874 0.489692 77.4864L10.1228 47.7112C10.163 47.5872 10.1785 47.4566 10.1685 47.3267L6.86758 4.41528C6.82452 3.85546 7.2507 3.36991 7.81138 3.34001L52.0249 0.981955C52.5973 0.951427 53.0781 1.40733 53.0781 1.98054V6.46869C53.0781 6.99598 52.6687 7.43266 52.1425 7.46661L15.7481 9.81464C15.2219 9.84859 14.8125 10.2853 14.8125 10.8126V18.3615C14.8125 18.944 15.3084 19.4033 15.8892 19.3586L74.4317 14.8553C74.7776 14.8287 75.085 14.6247 75.2439 14.3162L79.4368 6.17718C79.7903 5.49096 80.755 5.44702 81.1694 6.09826L84.26 10.9548C84.4435 11.2433 84.7617 11.418 85.1036 11.418H92.6247C92.9783 11.418 93.3057 11.2312 93.4856 10.9267L96.3777 6.03242C96.7574 5.3899 97.6816 5.37464 98.0823 6.00428Z" fill="#CE8515"/>
<path d="M90.6068 25.7076L89.1998 27.4088C88.7865 27.9085 88.0142 27.8888 87.627 27.3686L86.3607 25.6674C85.8697 25.0077 86.3405 24.0703 87.1629 24.0703L89.8362 24.0703C90.6823 24.0703 91.146 25.0556 90.6068 25.7076Z" fill="black"/>
<path d="M90.6068 30.4564L89.1998 28.7552C88.7865 28.2555 88.0142 28.2753 87.627 28.7955L86.3607 30.4966C85.8697 31.1563 86.3405 32.0937 87.1629 32.0938L89.8362 32.0938C90.6823 32.0938 91.146 31.1084 90.6068 30.4564Z" fill="black"/>
<rect x="85.7891" y="19.75" width="5.55469" height="5.55469" rx="1" fill="#0B883A"/>
<circle cx="83.3203" cy="18.5156" r="2.46875" fill="black"/>
<circle cx="93.8125" cy="18.5156" r="2.46875" fill="black"/>
<circle cx="73.4453" cy="27.1562" r="3.70312" fill="#DF0812"/>
<circle cx="73.4453" cy="37.0312" r="3.70312" fill="#DF0812"/>
<circle cx="70.3594" cy="46.2891" r="3.70312" fill="#DF0812"/>
<circle cx="61.7188" cy="34.5625" r="3.70312" fill="#DF0812"/>
<circle cx="58.0156" cy="21.6016" r="3.70312" fill="#DF0812"/>
<circle cx="68.5078" cy="21.6016" r="3.70312" fill="#DF0812"/>
<circle cx="57.3984" cy="43.2031" r="3.70312" fill="#DF0812"/>
<circle cx="47.5234" cy="35.1797" r="3.70312" fill="#DF0812"/>
<circle cx="48.7578" cy="26.5391" r="3.70312" fill="#DF0812"/>
<circle cx="40.1172" cy="20.9844" r="3.70312" fill="#DF0812"/>
<circle cx="32.7109" cy="25.9219" r="3.70312" fill="#DF0812"/>
<circle cx="35.7969" cy="35.7969" r="3.70312" fill="#DF0812"/>
<circle cx="46.2891" cy="44.4375" r="3.70312" fill="#DF0812"/>
<circle cx="29.625" cy="46.2891" r="3.70312" fill="#DF0812"/>
<circle cx="25.3047" cy="37.0312" r="3.70312" fill="#DF0812"/>
<circle cx="16.6641" cy="44.4375" r="3.70312" fill="#DF0812"/>
<circle cx="20.3672" cy="28.3906" r="3.70312" fill="#DF0812"/>
<circle cx="12.9609" cy="23.4531" r="3.70312" fill="#DF0812"/>
<circle cx="10.4922" cy="11.1094" r="3.70312" fill="#DF0812"/>
<circle cx="17.8984" cy="5.55469" r="3.70312" fill="#DF0812"/>
<circle cx="27.1562" cy="6.17188" r="3.70312" fill="#DF0812"/>
<circle cx="41.3516" cy="3.70312" r="3.70312" fill="#DF0812"/>
<circle cx="49.9922" cy="4.32031" r="3.70312" fill="#DF0812"/>
</svg>
