<svg width="147" height="106" viewBox="0 0 147 106" fill="none" xmlns="http://www.w3.org/2000/svg">
<path d="M41.2932 42.5703L5.95984 40.0161L8.93976 72.3695L41.2932 62.1526H68.5382L77.0522 80.0321L14.0482 106L100.04 96.2088L111.96 77.4779L107.703 57.0442L130.265 51.0843L134.522 41.7189L133.671 34.9076L128.137 30.6506L106.426 29.7992L103.446 9.79116L77.0522 0L0 17.0281L68.5382 22.5622L65.1325 37.8876L41.2932 42.5703Z" fill="#118199"/>
<path d="M41.7192 46.8276L13.6228 43.8477V51.5103L33.2051 53.6388L12.3457 59.5987L13.6228 66.8356L41.7192 59.5987V46.8276Z" fill="#FEE004"/>
<path d="M146.015 35.7586L133.67 34.9072L134.521 41.7185L146.015 35.7586Z" fill="#FEB700"/>
<path d="M107.703 57.0441L104.723 47.2529L129.839 51.0843L107.703 57.0441Z" fill="#ED020B"/>
<circle cx="124.732" cy="37.0366" r="2.97992" fill="black"/>
</svg>
