<svg width="112" height="73" viewBox="0 0 112 73" fill="none" xmlns="http://www.w3.org/2000/svg">
<path d="M51.7941 0.581341L4.40788 0.581341C3.40301 0.581341 3.02586 1.89723 3.87817 2.42952L22.0211 13.7602C22.6354 14.1439 22.6508 15.0331 22.0501 15.4378L3.12698 28.1852C2.31326 28.7333 2.69335 30.0034 3.67441 30.0145L33.0491 30.3453C33.4431 30.3498 33.7978 30.5852 33.9549 30.9465L41.7068 48.7745C41.7655 48.9093 41.8531 49.0296 41.9635 49.1267L58.7266 63.8686C59.2571 64.3351 59.1497 65.1897 58.5202 65.5105L50.0445 69.8292C49.108 70.3064 49.4474 71.7202 50.4985 71.7202L69.9467 71.7202C70.2001 71.7202 70.4441 71.624 70.6293 71.451L110.85 33.887C111.277 33.4887 111.277 32.8147 110.846 32.4211C104.729 26.8335 93.7794 16.8182 93.2957 16.3234C92.8186 15.8354 85.39 39.3369 81.1176 53.1348C80.852 53.9928 79.6791 54.0887 79.2712 53.2885L52.685 1.12723C52.5143 0.792245 52.1701 0.581341 51.7941 0.581341Z" fill="#A40B0B"/>
<path d="M74.658 56.998L58.0449 16.9551C57.8149 16.4007 57.1518 16.1724 56.6293 16.4676L43.1689 24.0726C42.6067 24.3903 42.4884 25.1496 42.9275 25.6231L73.001 58.0611C73.7597 58.8794 75.0856 58.0286 74.658 56.998Z" fill="#457EEB"/>
<path d="M25.243 11.0188L25.3617 3.91254C25.371 3.35381 24.9206 2.89586 24.3618 2.89584L12.1205 2.89556C11.1009 2.89553 10.7352 4.2426 11.6148 4.75825L23.7374 11.8648C24.3976 12.2518 25.2302 11.784 25.243 11.0188Z" fill="#FFED0A"/>
<path d="M25.2145 26.7718L25.2145 18.2287C25.2145 17.438 24.3402 16.9601 23.6746 17.3869L10.3529 25.93C9.51227 26.4691 9.89408 27.7718 10.8927 27.7718L24.2145 27.7718C24.7668 27.7718 25.2145 27.3241 25.2145 26.7718Z" fill="#FFED0A"/>
<circle cx="35.2257" cy="7.99887" r="2.6955" transform="rotate(0.645302 35.2257 7.99887)" fill="black" stroke="black"/>
<circle cx="40.7032" cy="32.3497" r="2.5564" transform="rotate(0.645302 40.7032 32.3497)" fill="black"/>
<circle cx="47.6603" cy="38.8194" r="2.5564" transform="rotate(0.645302 47.6603 38.8194)" fill="black"/>
<circle cx="45.6583" cy="46.4669" r="2.5564" transform="rotate(0.645302 45.6583 46.4669)" fill="black"/>
<circle cx="53.3263" cy="46.5518" r="2.5564" transform="rotate(0.645302 53.3263 46.5518)" fill="black"/>
<circle cx="54.5177" cy="54.2354" r="2.5564" transform="rotate(0.645302 54.5177 54.2354)" fill="black"/>
<circle cx="63.4649" cy="54.337" r="2.5564" transform="rotate(0.645302 63.4649 54.337)" fill="black"/>
</svg>
